{"glyphs":{"0":{"ha":1462,"x_min":20,"x_max":1418,"o":"m 708 56 l 708 56 q 595 56 503 35 q 410 13 342 -24 q 274 -61 222 -118 q 169 -175 135 -239 q 100 -304 76 -387 q 52 -471 40 -553 q 27 -635 20 -736 l 20 -736 q 20 -1495 720 -1550 l 720 -1550 q 841 -1550 942 -1522 q 1042 -1495 1113 -1449 q 1184 -1403 1239 -1336 q 1294 -1270 1327 -1198 q 1360 -1126 1381 -1041 q 1402 -957 1410 -880 q 1418 -803 1418 -720 l 1418 -720 q 1418 -530 1364 -381 q 1309 -232 1213 -137 q 1116 -42 988 7 q 860 56 708 56 z m 556 -696 l 556 -696 q 556 -657 557 -627 q 558 -597 562 -553 q 565 -510 571 -477 q 577 -445 589 -410 q 600 -375 616 -352 q 632 -329 657 -314 q 681 -300 712 -300 l 712 -300 q 747 -300 775 -315 q 802 -330 820 -351 q 837 -372 849 -409 q 861 -446 867 -474 q 873 -503 876 -549 q 879 -596 880 -620 q 880 -644 880 -687 l 880 -687 q 880 -696 880 -700 l 880 -700 q 884 -734 884 -806 l 884 -806 q 884 -811 885 -846 q 885 -881 885 -902 q 885 -924 882 -964 q 879 -1004 874 -1030 q 869 -1056 858 -1089 q 846 -1122 830 -1141 q 814 -1161 789 -1174 q 764 -1188 732 -1188 l 732 -1188 q 706 -1188 684 -1181 q 662 -1174 646 -1157 q 629 -1141 616 -1124 q 603 -1107 594 -1078 q 585 -1049 578 -1026 q 571 -1004 567 -966 q 563 -929 561 -905 q 558 -882 557 -839 q 556 -797 556 -777 q 556 -757 556 -715 l 556 -715 q 556 -702 556 -696 z"},"1":{"ha":1578,"x_min":196,"x_max":1120,"o":"m 196 -816 l 196 -960 q 196 -971 196 -993 l 196 -993 q 196 -1156 205 -1191 l 205 -1191 q 214 -1225 248 -1247 l 248 -1247 q 258 -1253 285 -1266 l 285 -1266 l 336 -1294 q 379 -1312 427 -1335 q 474 -1358 547 -1408 q 619 -1458 648 -1504 l 648 -1504 q 888 -1500 1008 -1500 l 1008 -1500 q 1060 -1500 1086 -1504 l 1086 -1504 q 1094 -1503 1099 -1499 q 1103 -1495 1105 -1484 q 1107 -1473 1108 -1463 q 1108 -1453 1108 -1430 l 1108 -1430 l 1108 -896 q 1108 -747 1114 -450 q 1120 -154 1120 -4 l 1120 -4 q 1115 32 976 32 l 976 32 q 956 32 922 31 q 888 30 876 30 l 876 30 q 848 30 797 31 q 746 32 722 32 l 722 32 q 660 32 536 28 l 536 28 l 510 -6 q 500 -16 500 -48 l 500 -48 q 500 -200 504 -488 l 504 -488 l 504 -924 q 357 -827 230 -788 l 230 -788 q 213 -788 205 -794 q 197 -800 196 -816 l 196 -816 z"},"2":{"ha":1458,"x_min":60,"x_max":1414,"o":"m 1400 -1076 l 1400 -1076 q 1400 -991 1376 -918 q 1351 -845 1314 -794 q 1276 -743 1220 -690 q 1163 -637 1110 -598 q 1057 -560 990 -506 q 922 -452 874 -404 l 874 -404 q 942 -404 1083 -408 q 1223 -412 1296 -412 l 1296 -412 q 1365 -412 1390 -365 q 1414 -319 1414 -232 l 1414 -232 q 1414 -205 1411 -140 q 1408 -76 1408 -42 l 1408 -42 l 1408 -24 q 1408 -9 1406 -1 q 1404 7 1395 14 q 1386 21 1368 24 l 1368 24 l 1296 24 q 1220 22 972 16 l 972 16 q 572 16 98 32 l 98 32 l 98 12 q 83 3 74 -24 q 64 -51 64 -84 l 64 -84 l 64 -376 q 64 -399 132 -444 l 132 -444 q 407 -630 526 -714 l 526 -714 l 588 -762 q 804 -930 804 -1062 l 804 -1062 q 804 -1104 780 -1128 q 755 -1152 714 -1152 l 714 -1152 q 679 -1152 659 -1136 q 638 -1121 631 -1098 q 623 -1076 619 -1053 q 614 -1030 606 -1011 q 597 -992 580 -988 l 580 -988 l 116 -988 q 60 -988 60 -1018 l 60 -1018 q 75 -1162 129 -1265 q 183 -1369 273 -1429 q 363 -1489 476 -1516 q 589 -1544 734 -1544 l 734 -1544 q 839 -1544 934 -1527 q 1029 -1511 1115 -1474 q 1201 -1438 1264 -1384 q 1326 -1331 1363 -1252 q 1400 -1173 1400 -1076 z"},"3":{"ha":1454,"x_min":16,"x_max":1388,"o":"m 692 58 l 692 58 q 545 58 430 33 q 315 7 222 -49 q 129 -106 76 -206 q 23 -307 16 -448 l 16 -448 q 16 -480 48 -480 l 48 -480 l 524 -480 q 542 -480 551 -476 q 559 -472 560 -458 l 560 -458 l 560 -456 q 568 -392 596 -358 q 623 -324 682 -324 l 682 -324 q 735 -324 766 -355 q 796 -387 796 -436 l 796 -436 q 796 -476 783 -504 q 769 -533 750 -548 q 731 -563 701 -571 q 671 -580 647 -582 q 623 -584 590 -584 l 590 -584 l 546 -584 q 507 -584 493 -607 q 478 -630 478 -678 l 478 -678 l 478 -742 q 478 -825 489 -864 q 500 -904 532 -904 l 532 -904 l 612 -904 q 692 -904 736 -936 q 780 -969 780 -1060 l 780 -1060 q 780 -1104 755 -1133 q 730 -1162 688 -1162 l 688 -1162 q 608 -1162 592 -1088 l 592 -1088 l 592 -1048 q 582 -1006 548 -992 l 548 -992 q 338 -992 170 -1000 l 170 -1000 q 162 -1000 145 -999 q 127 -998 118 -998 l 118 -998 q 40 -998 40 -1036 l 40 -1036 q 55 -1178 64 -1215 l 64 -1215 q 92 -1331 185 -1405 l 185 -1405 q 213 -1428 248 -1448 l 248 -1448 q 350 -1508 479 -1526 q 607 -1544 776 -1544 l 776 -1544 q 851 -1544 929 -1528 q 1007 -1512 1084 -1477 q 1161 -1442 1221 -1393 q 1280 -1344 1317 -1271 q 1354 -1198 1354 -1112 l 1354 -1112 q 1354 -1035 1334 -977 q 1313 -920 1274 -884 q 1235 -848 1195 -826 q 1155 -805 1100 -788 l 1100 -788 q 1255 -740 1322 -655 q 1388 -570 1388 -440 l 1388 -440 q 1388 -348 1361 -272 q 1334 -197 1292 -146 q 1249 -95 1188 -57 q 1126 -19 1065 3 q 1004 24 932 37 q 860 50 805 54 q 750 58 692 58 z"},"4":{"ha":1432,"x_min":-8,"x_max":1434,"o":"m -8 -248 l -8 -248 l -8 -548 q -8 -574 0 -606 q 7 -638 15 -661 q 23 -684 42 -721 q 61 -759 70 -774 q 78 -789 102 -829 q 126 -870 128 -874 l 128 -874 q 185 -965 313 -1177 q 440 -1389 508 -1496 l 508 -1496 l 1260 -1496 l 1260 -1432 q 1260 -1339 1256 -1155 q 1252 -971 1252 -878 l 1252 -878 l 1252 -832 q 1252 -800 1254 -784 l 1254 -784 l 1254 -776 q 1254 -754 1252 -744 l 1252 -744 l 1252 -708 q 1252 -634 1296 -634 l 1296 -634 q 1309 -634 1338 -635 q 1367 -636 1380 -636 l 1380 -636 q 1413 -636 1423 -625 q 1432 -615 1432 -576 l 1432 -576 q 1432 -572 1428 -572 l 1428 -572 q 1428 -567 1430 -529 q 1431 -492 1433 -437 q 1434 -383 1434 -336 l 1434 -336 q 1434 -265 1428 -238 q 1421 -212 1400 -212 l 1400 -212 l 1260 -212 q 1264 -88 1264 -32 l 1264 -32 q 1264 -10 1263 0 q 1261 9 1252 18 q 1243 26 1224 28 l 1224 28 l 1030 28 q 790 28 706 34 l 706 34 l 672 -8 l 672 -226 l 56 -226 q 50 -226 41 -225 q 31 -224 26 -224 q 21 -225 14 -226 q 7 -228 2 -233 q -3 -239 -8 -248 z m 406 -628 l 406 -628 l 406 -602 q 407 -596 418 -587 q 428 -578 430 -576 l 430 -576 q 475 -576 573 -579 q 670 -582 714 -582 l 714 -582 q 735 -591 744 -618 l 744 -618 l 744 -656 q 742 -666 742 -692 l 742 -692 l 742 -716 q 743 -739 744 -778 q 744 -817 744 -854 l 744 -854 q 744 -1140 704 -1140 l 704 -1140 l 704 -1124 q 660 -1047 557 -881 q 454 -715 406 -628 z"},"5":{"ha":1468,"x_min":68,"x_max":1392,"o":"m 68 -400 l 68 -400 q 68 -422 99 -429 q 129 -436 188 -436 l 188 -436 l 352 -436 q 396 -436 482 -433 q 568 -430 616 -430 l 616 -430 q 633 -428 642 -411 q 650 -394 653 -375 q 656 -356 669 -340 q 682 -324 708 -324 l 708 -324 q 808 -324 808 -492 l 808 -492 q 808 -528 805 -554 q 802 -581 793 -610 q 784 -639 764 -654 q 743 -670 712 -670 l 712 -670 q 676 -670 660 -652 q 643 -634 642 -612 q 641 -590 631 -572 q 621 -554 596 -554 l 596 -554 l 152 -554 q 122 -597 122 -676 l 122 -676 l 122 -1422 q 122 -1447 123 -1459 q 124 -1472 130 -1489 q 135 -1506 146 -1518 l 146 -1518 l 1246 -1518 q 1267 -1518 1286 -1509 q 1304 -1500 1308 -1484 l 1308 -1484 l 1308 -1290 q 1308 -1283 1308 -1270 l 1308 -1270 q 1308 -1161 1303 -1139 q 1297 -1118 1266 -1118 l 1266 -1118 q 1050 -1118 634 -1114 l 634 -1114 q 631 -1084 627 -1023 q 623 -962 620 -932 l 620 -932 q 670 -968 748 -988 q 826 -1008 902 -1008 l 902 -1008 q 1124 -1008 1258 -872 q 1392 -737 1392 -524 l 1392 -524 q 1392 -398 1353 -297 q 1313 -196 1248 -131 q 1183 -66 1095 -22 q 1006 21 913 40 q 820 58 720 58 l 720 58 q 653 58 595 53 q 536 48 472 35 q 408 22 355 1 q 302 -21 252 -56 q 201 -92 165 -138 q 128 -185 102 -252 q 76 -319 68 -400 z"},"6":{"ha":1456,"x_min":44,"x_max":1412,"o":"m 788 52 l 788 52 q 415 52 230 -155 q 44 -363 44 -752 l 44 -752 q 44 -989 131 -1169 q 217 -1349 383 -1451 q 548 -1553 772 -1556 l 772 -1556 q 908 -1556 1010 -1530 q 1112 -1505 1173 -1465 q 1234 -1426 1273 -1366 q 1312 -1306 1328 -1248 q 1343 -1190 1348 -1118 l 1348 -1118 q 1348 -1100 1279 -1089 q 1210 -1079 1105 -1077 q 999 -1075 948 -1075 q 897 -1075 862 -1076 l 862 -1076 q 822 -1076 822 -1092 l 822 -1092 l 822 -1144 q 813 -1162 774 -1162 l 774 -1162 q 612 -1162 612 -900 l 612 -900 l 612 -884 q 702 -990 900 -990 l 900 -990 q 1121 -990 1267 -855 q 1412 -720 1412 -512 l 1412 -512 q 1412 -394 1375 -298 q 1337 -203 1276 -140 q 1215 -78 1133 -34 q 1050 9 965 29 q 879 48 788 52 z m 596 -466 l 596 -466 q 596 -384 638 -324 q 679 -264 756 -264 l 756 -264 q 806 -264 842 -284 q 877 -305 895 -340 q 913 -375 921 -411 q 928 -448 928 -490 l 928 -490 q 923 -588 887 -640 q 850 -692 764 -692 l 764 -692 q 714 -692 679 -674 q 644 -656 627 -622 q 610 -589 603 -552 q 596 -515 596 -466 z"},"7":{"ha":1462,"x_min":68,"x_max":1374,"o":"m 68 -1112 l 68 -1448 q 68 -1528 108 -1528 l 108 -1528 q 246 -1529 722 -1520 l 722 -1520 l 1332 -1520 q 1374 -1520 1374 -1362 l 1374 -1362 q 1372 -1154 1363 -1089 q 1354 -1024 1308 -944 l 1308 -944 q 1179 -717 1094 -564 l 1094 -564 q 982 -357 804 4 l 804 4 q 799 18 793 24 q 787 30 772 30 l 772 30 q 740 30 676 29 q 612 28 580 28 l 580 28 l 432 28 q 180 28 180 -8 l 180 -8 q 180 -25 188 -44 l 188 -44 q 274 -208 427 -515 q 579 -823 620 -904 l 620 -904 l 704 -1070 q 478 -1070 364 -1066 l 364 -1066 l 134 -1066 q 113 -1066 100 -1074 q 86 -1082 68 -1112 l 68 -1112 z"},"8":{"ha":1450,"x_min":28,"x_max":1408,"o":"m 708 -1548 l 708 -1548 q 815 -1548 911 -1531 q 1006 -1514 1090 -1476 q 1174 -1438 1235 -1382 q 1296 -1327 1331 -1246 q 1366 -1165 1366 -1066 l 1366 -1066 q 1366 -838 1160 -764 l 1160 -764 q 1216 -736 1257 -706 q 1298 -676 1334 -632 q 1370 -589 1389 -529 q 1408 -470 1408 -396 l 1408 -396 q 1408 -177 1229 -60 q 1049 56 688 56 l 688 56 q 577 56 486 42 q 394 28 329 5 q 264 -19 214 -54 q 163 -90 132 -127 q 100 -164 78 -212 q 56 -260 46 -302 q 35 -345 28 -396 l 28 -396 q 36 -522 90 -610 q 144 -698 264 -754 l 264 -754 q 74 -840 74 -1068 l 74 -1068 q 74 -1172 114 -1256 q 153 -1340 217 -1393 q 280 -1446 365 -1482 q 449 -1518 535 -1533 q 620 -1548 708 -1548 z m 558 -440 l 558 -440 q 566 -364 608 -318 q 649 -272 720 -272 l 720 -272 q 794 -272 835 -317 q 876 -362 876 -432 l 876 -432 q 876 -620 718 -620 l 718 -620 q 648 -620 603 -567 q 558 -515 558 -440 z m 584 -1048 l 584 -1048 q 584 -888 722 -888 l 722 -888 q 789 -888 822 -935 q 854 -982 854 -1052 l 854 -1052 q 854 -1212 714 -1212 l 714 -1212 q 651 -1212 618 -1160 q 584 -1108 584 -1048 z"},"9":{"ha":1456,"x_min":42,"x_max":1408,"o":"m 628 -388 l 628 -388 q 631 -371 634 -362 q 637 -354 645 -344 q 652 -334 666 -330 q 679 -326 700 -326 l 700 -326 q 727 -326 748 -336 q 769 -346 783 -359 q 797 -373 808 -398 q 818 -424 824 -442 q 829 -460 834 -493 q 838 -526 839 -541 q 840 -556 842 -588 l 842 -588 q 735 -524 592 -524 l 592 -524 q 510 -524 433 -540 q 356 -556 285 -592 q 213 -628 160 -680 q 106 -732 74 -810 q 42 -889 42 -984 l 42 -984 q 42 -1100 82 -1195 q 121 -1290 187 -1353 q 253 -1416 341 -1459 q 429 -1502 522 -1521 q 615 -1540 712 -1540 l 712 -1540 q 874 -1540 1006 -1484 q 1138 -1428 1226 -1327 q 1313 -1227 1361 -1087 q 1408 -948 1408 -782 l 1408 -782 q 1408 -406 1254 -192 l 1254 -192 q 1201 -113 1121 -58 q 1040 -4 948 22 q 855 48 776 58 q 696 68 612 68 l 612 68 q 386 68 248 -52 l 248 -52 q 175 -107 140 -198 q 104 -289 104 -390 l 104 -390 l 140 -434 l 592 -434 q 609 -434 619 -420 q 628 -406 628 -388 z m 520 -988 l 520 -988 q 528 -895 569 -845 q 609 -796 692 -796 l 692 -796 q 852 -796 852 -996 l 852 -996 q 852 -1041 846 -1076 q 839 -1111 823 -1143 q 806 -1176 773 -1194 q 740 -1212 692 -1212 l 692 -1212 q 645 -1212 610 -1192 q 575 -1173 556 -1139 q 537 -1106 529 -1068 q 520 -1031 520 -988 z"}," ":{"ha":616,"x_min":0,"x_max":0,"o":""},"A":{"ha":1638,"x_min":-48,"x_max":1681,"o":"m -48 0 l -48 0 q 14 -229 89 -465 q 164 -701 276 -1029 q 387 -1358 428 -1484 l 428 -1484 q 440 -1504 444 -1508 l 444 -1508 l 612 -1508 q 671 -1508 786 -1510 q 901 -1512 960 -1512 l 960 -1512 l 1128 -1512 q 1143 -1512 1153 -1511 q 1163 -1511 1177 -1509 q 1191 -1507 1200 -1503 q 1208 -1499 1214 -1491 q 1220 -1483 1220 -1472 l 1220 -1472 l 1681 -11 q 1681 9 1667 17 q 1652 24 1612 24 l 1612 24 l 1520 24 q 1480 24 1401 25 q 1322 26 1282 26 l 1282 26 q 1270 26 1234 28 q 1197 29 1172 29 q 1147 28 1117 26 q 1086 23 1068 15 q 1049 6 1044 -8 l 1044 -8 l 1044 -74 q 1034 -124 1009 -166 q 984 -208 956 -208 l 956 -208 l 612 -208 l 560 4 q 549 28 448 28 l 448 28 l 368 28 q 325 28 240 31 q 155 34 112 34 l 112 34 l 84 34 q 68 34 34 35 q -1 36 -20 36 l -20 36 q -28 28 -48 0 z m 726 -954 l 646 -607 l 674 -560 l 740 -560 q 820 -560 887 -569 q 953 -579 953 -600 l 953 -600 l 824 -1176 q 806 -1176 776 -1108 q 745 -1040 726 -954 l 726 -954 z"},"B":{"ha":1570,"x_min":92,"x_max":1528,"o":"m 92 -136 l 92 -136 l 92 -1482 l 956 -1512 q 1036 -1512 1106 -1502 q 1176 -1492 1248 -1464 q 1319 -1437 1370 -1393 q 1420 -1350 1452 -1278 q 1484 -1206 1484 -1112 l 1484 -1112 q 1484 -987 1429 -909 q 1374 -832 1264 -772 l 1264 -772 q 1393 -736 1461 -647 q 1528 -559 1528 -424 l 1528 -424 q 1528 -324 1490 -244 q 1452 -165 1392 -115 q 1332 -65 1251 -32 q 1170 1 1091 15 q 1011 28 928 28 l 928 28 q 880 28 784 26 q 687 24 638 24 l 638 24 q 360 24 128 32 l 128 32 q 95 -21 92 -136 z m 666 -1148 l 666 -1148 q 666 -1103 669 -1014 q 672 -925 672 -880 l 672 -880 q 672 -861 696 -858 l 696 -858 q 710 -860 745 -864 q 779 -869 799 -872 q 819 -875 848 -886 q 876 -898 892 -914 q 908 -930 920 -960 q 932 -991 932 -1032 l 932 -1032 q 932 -1184 722 -1184 l 722 -1184 q 680 -1177 673 -1170 l 673 -1170 q 666 -1162 666 -1148 z m 684 -422 l 684 -386 q 684 -312 692 -312 l 692 -312 l 724 -312 q 763 -312 792 -314 q 820 -317 853 -327 q 886 -337 906 -354 q 926 -372 940 -404 q 954 -436 954 -480 l 954 -480 q 954 -505 949 -526 q 944 -547 933 -562 q 922 -577 912 -588 q 901 -599 882 -606 q 862 -614 850 -618 q 837 -623 812 -626 q 787 -629 776 -630 q 765 -631 738 -632 q 711 -634 704 -634 l 704 -634 l 704 -596 q 703 -585 694 -522 q 684 -459 684 -422 l 684 -422 z"},"C":{"ha":1556,"x_min":40,"x_max":1528,"o":"m 1528 -536 l 1528 -536 q 1511 -386 1449 -270 q 1387 -155 1290 -82 q 1193 -10 1070 27 q 946 64 800 64 l 800 64 q 664 64 552 35 q 440 5 363 -44 q 286 -93 227 -163 q 168 -234 133 -308 q 98 -383 77 -471 q 55 -560 48 -636 q 40 -713 40 -796 l 40 -796 l 40 -884 q 50 -1030 108 -1146 q 166 -1263 249 -1334 q 332 -1406 439 -1453 q 546 -1501 647 -1519 q 748 -1538 848 -1538 l 848 -1538 q 1009 -1538 1133 -1499 q 1256 -1461 1334 -1391 q 1412 -1321 1456 -1230 q 1500 -1140 1512 -1028 l 1512 -1028 l 1512 -932 q 1512 -900 1292 -900 l 1292 -900 q 1240 -900 1148 -902 q 1055 -904 1026 -904 l 1026 -904 q 1021 -904 1011 -903 q 1001 -902 996 -902 l 996 -902 q 970 -902 957 -923 q 943 -945 939 -976 q 934 -1007 928 -1038 q 921 -1069 901 -1090 q 880 -1112 844 -1112 q 808 -1112 781 -1100 q 754 -1088 738 -1062 q 722 -1037 712 -1011 q 701 -985 697 -943 q 692 -902 691 -873 q 689 -845 688 -797 q 687 -750 686 -728 l 686 -728 q 686 -716 684 -684 q 682 -652 682 -632 l 682 -632 q 682 -383 814 -376 l 814 -376 q 850 -376 873 -402 q 896 -428 905 -460 q 913 -492 924 -527 q 935 -563 948 -576 l 948 -576 l 1492 -576 q 1525 -573 1528 -536 z"},"D":{"ha":1648,"x_min":106,"x_max":1612,"o":"m 106 -56 l 106 -1468 q 106 -1479 119 -1487 q 131 -1496 155 -1500 q 179 -1505 203 -1508 q 227 -1511 261 -1512 q 294 -1513 316 -1513 q 338 -1513 367 -1512 q 395 -1512 400 -1512 l 400 -1512 l 512 -1512 q 545 -1512 605 -1514 q 664 -1516 692 -1516 l 692 -1516 q 1169 -1516 1374 -1352 l 1374 -1352 l 1410 -1320 q 1427 -1304 1448 -1278 q 1469 -1253 1500 -1201 q 1530 -1150 1554 -1090 q 1578 -1030 1595 -942 q 1612 -854 1612 -760 l 1612 -760 q 1612 -614 1572 -487 q 1532 -360 1463 -267 q 1393 -174 1300 -106 q 1206 -39 1097 -5 q 988 28 872 28 l 872 28 l 840 28 q 797 28 712 26 q 627 24 584 24 l 584 24 q 333 24 130 32 l 130 32 q 106 -16 106 -56 l 106 -56 z m 694 -320 l 694 -320 q 754 -320 802 -333 q 850 -347 883 -369 q 916 -391 941 -425 q 966 -459 981 -495 q 995 -531 1004 -577 q 1012 -624 1015 -665 q 1018 -707 1018 -758 l 1018 -758 l 1018 -820 q 1018 -1004 945 -1091 q 872 -1179 690 -1184 l 690 -1184 q 685 -1173 674 -1154 q 663 -1135 658 -1124 l 658 -1124 l 658 -1076 q 658 -1061 657 -998 l 657 -998 q 644 -328 694 -320 z"},"E":{"ha":1306,"x_min":92,"x_max":1288,"o":"m 92 -36 l 92 -36 l 92 -74 q 92 -245 96 -579 q 100 -913 100 -1084 l 100 -1084 l 100 -1498 l 1264 -1498 l 1264 -1170 q 1264 -1167 1264 -1155 q 1264 -1143 1264 -1139 q 1264 -1135 1263 -1124 q 1262 -1114 1260 -1110 q 1257 -1106 1253 -1098 q 1248 -1091 1242 -1088 q 1236 -1085 1226 -1082 q 1216 -1080 1204 -1080 l 1204 -1080 l 1176 -1080 q 917 -1080 704 -1088 l 704 -1088 q 702 -1072 698 -1038 q 693 -1005 691 -979 q 688 -954 688 -930 l 688 -930 l 1164 -930 q 1194 -930 1204 -922 q 1214 -914 1214 -896 l 1214 -896 q 1214 -891 1213 -880 q 1212 -869 1212 -864 l 1212 -864 q 1212 -816 1215 -722 q 1218 -628 1218 -580 l 1218 -580 q 1215 -560 1202 -560 l 1202 -560 q 1196 -560 1192 -564 l 1192 -564 q 876 -548 724 -548 l 724 -548 l 698 -548 l 698 -404 q 787 -404 956 -412 q 1124 -420 1208 -420 l 1208 -420 q 1274 -420 1284 -392 l 1284 -392 l 1284 -316 q 1284 -268 1286 -174 q 1288 -80 1288 -32 l 1288 -32 q 1288 18 1248 18 l 1248 18 q 1196 18 1088 17 q 980 16 924 16 l 924 16 q 780 16 512 24 q 244 31 124 32 l 124 32 l 96 0 q 92 -28 92 -36 z"},"F":{"ha":1264,"x_min":99,"x_max":1264,"o":"m 100 -140 l 100 -140 l 100 -1476 q 100 -1510 256 -1510 l 256 -1510 q 273 -1510 305 -1509 q 336 -1508 348 -1508 l 348 -1508 q 427 -1508 584 -1511 q 740 -1514 820 -1514 l 820 -1514 q 875 -1514 984 -1512 q 1092 -1510 1152 -1510 l 1152 -1510 q 1160 -1510 1176 -1511 q 1192 -1512 1200 -1512 l 1200 -1512 q 1236 -1512 1250 -1498 q 1264 -1485 1264 -1446 l 1264 -1446 l 1264 -1096 q 1206 -1091 1143 -1089 q 1080 -1088 983 -1087 q 886 -1086 862 -1086 l 862 -1086 l 724 -1086 q 724 -1067 723 -1031 q 722 -995 722 -976 l 722 -976 l 722 -962 q 724 -958 724 -948 l 724 -948 q 951 -964 1108 -964 l 1108 -964 q 1155 -964 1192 -957 q 1228 -950 1228 -936 l 1228 -936 l 1228 -602 q 1228 -558 1211 -543 q 1194 -528 1158 -528 l 1158 -528 q 1150 -528 1129 -530 q 1108 -532 1096 -532 l 1096 -532 q 893 -519 726 -516 l 726 -516 q 726 -455 729 -332 q 732 -209 732 -148 l 732 -148 l 732 -24 q 732 5 726 15 q 720 24 696 28 l 696 28 q 600 28 412 30 q 224 32 128 32 l 128 32 q 120 20 115 6 q 109 -8 106 -19 q 103 -30 102 -49 q 100 -69 100 -77 q 99 -86 100 -110 q 100 -134 100 -140 z"},"G":{"ha":1680,"x_min":42,"x_max":1612,"o":"m 42 -748 l 42 -748 q 42 -886 73 -1001 q 104 -1116 156 -1196 q 207 -1276 280 -1338 q 352 -1400 429 -1437 q 506 -1475 595 -1499 q 683 -1523 760 -1531 q 837 -1540 916 -1540 l 916 -1540 q 974 -1540 1030 -1535 q 1085 -1530 1155 -1517 q 1224 -1505 1285 -1479 q 1345 -1453 1401 -1415 q 1456 -1378 1497 -1318 q 1538 -1259 1556 -1184 l 1556 -1184 q 1561 -1155 1576 -1020 l 1576 -1020 q 1572 -990 1512 -990 l 1512 -990 q 1426 -990 1262 -994 q 1098 -998 1016 -998 l 1016 -998 q 1004 -1002 997 -1014 q 990 -1026 988 -1040 q 985 -1054 980 -1070 q 974 -1086 966 -1098 q 957 -1111 936 -1119 q 914 -1128 882 -1128 l 882 -1128 q 840 -1128 807 -1113 q 774 -1099 753 -1078 q 732 -1057 717 -1021 q 702 -985 695 -955 q 687 -926 683 -880 q 679 -835 679 -809 q 678 -783 678 -740 l 678 -740 q 678 -727 679 -708 q 680 -689 680 -682 l 680 -682 l 680 -652 q 680 -620 681 -599 q 682 -578 687 -545 q 691 -512 699 -489 q 707 -467 723 -441 q 738 -416 761 -400 q 783 -385 817 -374 q 851 -364 894 -364 l 894 -364 q 1005 -364 1076 -386 l 1076 -386 l 1076 -508 l 1032 -508 l 1032 -506 l 960 -506 q 952 -506 932 -505 q 911 -504 898 -504 l 898 -504 l 862 -544 l 862 -820 q 862 -846 898 -876 l 898 -876 l 970 -876 q 1045 -876 1152 -874 q 1259 -872 1316 -872 l 1316 -872 l 1396 -872 q 1454 -872 1487 -871 q 1519 -870 1559 -861 q 1599 -853 1612 -836 l 1612 -836 q 1612 -705 1606 -454 q 1600 -203 1600 -90 l 1600 -90 q 1600 -87 1601 -80 q 1602 -74 1602 -70 l 1602 -70 l 1602 -48 q 1568 -8 1380 22 q 1192 52 1064 52 l 1064 52 l 1038 52 q 1010 52 955 56 q 900 60 872 60 l 872 60 q 469 60 256 -155 q 42 -371 42 -748 z"},"H":{"ha":1654,"x_min":90,"x_max":1556,"o":"m 478 26 l 360 26 q 332 26 295 28 q 258 29 238 30 q 218 31 193 30 q 167 28 154 23 q 141 17 127 6 q 112 -5 106 -24 q 99 -43 95 -71 q 90 -99 90 -138 l 90 -138 q 90 -354 98 -727 q 106 -1101 106 -1276 l 106 -1276 q 106 -1492 128 -1504 l 128 -1504 l 500 -1504 q 599 -1504 648 -1492 q 696 -1481 712 -1458 q 728 -1435 728 -1388 l 728 -1388 q 728 -1374 726 -1333 q 724 -1293 724 -1266 l 724 -1266 l 724 -1220 q 724 -1188 721 -1124 q 718 -1060 718 -1028 l 718 -1028 l 718 -1008 q 720 -1002 720 -992 l 720 -992 l 760 -992 q 777 -992 812 -991 q 847 -990 864 -990 l 864 -990 q 910 -990 932 -996 l 932 -996 l 932 -1412 q 932 -1462 937 -1483 q 942 -1505 951 -1510 q 960 -1516 984 -1516 l 984 -1516 q 997 -1516 1026 -1515 q 1055 -1514 1068 -1514 l 1068 -1514 l 1142 -1517 q 1217 -1520 1276 -1520 l 1276 -1520 q 1548 -1520 1548 -1460 l 1548 -1460 q 1548 -1444 1549 -1414 q 1550 -1384 1550 -1368 l 1550 -1368 q 1550 -1333 1549 -1266 q 1548 -1199 1548 -1164 l 1548 -1164 q 1548 -1060 1551 -854 q 1554 -648 1554 -544 l 1554 -544 q 1554 -535 1553 -521 q 1552 -508 1552 -504 l 1552 -504 l 1552 -456 q 1552 -392 1554 -360 l 1554 -360 l 1554 -338 q 1552 -334 1552 -326 l 1552 -326 q 1552 -273 1554 -165 q 1556 -57 1556 -4 l 1556 -4 q 1549 32 1364 32 l 1364 32 l 948 32 l 918 -10 l 918 -76 q 918 -143 919 -274 q 920 -405 920 -472 l 920 -472 q 920 -495 915 -503 q 909 -512 892 -512 l 892 -512 l 856 -512 q 788 -512 732 -504 l 732 -504 q 732 -421 730 -254 q 728 -88 728 -4 l 728 -4 q 716 26 478 26 l 478 26 z"},"I":{"ha":842,"x_min":82,"x_max":728,"o":"m 728 26 l 82 26 q 86 -265 96 -400 l 96 -400 q 96 -820 108 -1252 l 108 -1252 q 104 -1336 104 -1376 l 104 -1376 l 104 -1406 q 100 -1450 100 -1478 l 100 -1478 q 100 -1497 118 -1512 l 118 -1512 q 282 -1500 618 -1500 l 618 -1500 q 698 -1500 728 -1504 l 728 -1504 l 728 26 z"},"J":{"ha":1382,"x_min":-24,"x_max":1294,"o":"m 624 56 l 624 56 q 513 56 422 42 q 330 27 246 -9 q 161 -46 103 -104 q 45 -162 11 -255 q -24 -348 -24 -470 l -24 -470 q -24 -524 8 -524 l 8 -524 l 464 -524 q 495 -524 510 -509 q 525 -494 528 -472 q 531 -450 534 -428 q 536 -406 549 -391 q 561 -376 588 -376 l 588 -376 q 613 -376 629 -389 q 644 -403 651 -430 q 657 -457 659 -477 q 660 -497 660 -528 l 660 -528 l 660 -536 q 659 -608 655 -814 q 650 -1020 650 -1136 l 650 -1136 l 650 -1476 q 650 -1505 692 -1510 l 692 -1510 q 724 -1510 788 -1509 q 852 -1508 884 -1508 l 884 -1508 q 932 -1508 1026 -1509 q 1120 -1510 1168 -1510 l 1168 -1510 l 1262 -1510 q 1285 -1510 1294 -1482 l 1294 -1482 q 1292 -1464 1293 -1433 q 1293 -1402 1292 -1384 l 1292 -1384 l 1292 -1334 q 1282 -1027 1282 -786 l 1282 -786 l 1282 -472 q 1282 -384 1258 -309 q 1234 -234 1194 -181 q 1154 -128 1099 -85 q 1043 -43 984 -17 q 925 9 860 26 q 794 43 737 50 q 679 56 624 56 z"},"K":{"ha":1646,"x_min":100,"x_max":1685,"o":"m 600 32 l 160 32 q 138 32 127 28 q 115 23 112 17 q 108 11 100 -6 l 100 -6 l 100 -1428 q 100 -1450 101 -1460 q 101 -1470 104 -1483 q 107 -1497 114 -1502 q 120 -1508 132 -1512 q 144 -1516 162 -1516 l 162 -1516 l 572 -1516 q 716 -1516 716 -1480 l 716 -1480 l 716 -1478 q 712 -1106 712 -924 l 712 -924 l 993 -1509 l 1200 -1508 q 1624 -1508 1624 -1488 l 1624 -1488 q 1624 -1484 1620 -1484 l 1620 -1484 q 1426 -1134 1226 -788 l 1226 -788 l 1226 -760 l 1267 -734 l 1685 -15 q 1685 1 1662 20 l 1662 20 l 1020 20 l 734 -538 q 728 -483 725 -378 q 722 -273 720 -240 l 720 -240 l 720 -4 q 713 32 600 32 l 600 32 z"},"L":{"ha":1264,"x_min":102,"x_max":1266,"o":"m 102 -1336 l 102 -1336 q 102 -1499 136 -1518 l 136 -1518 q 146 -1516 164 -1516 l 164 -1516 l 196 -1516 q 227 -1516 298 -1518 q 369 -1520 406 -1520 l 406 -1520 q 548 -1520 636 -1508 q 723 -1497 734 -1466 l 734 -1466 l 722 -434 l 744 -434 q 824 -438 856 -437 q 888 -437 974 -433 q 1059 -430 1138 -430 l 1138 -430 q 1203 -430 1235 -422 q 1266 -415 1266 -392 l 1266 -392 l 1266 -8 q 1253 28 820 28 l 820 28 l 128 28 q 104 -7 104 -84 l 104 -84 l 104 -368 q 104 -493 106 -738 q 108 -983 108 -1108 l 108 -1108 q 108 -1131 105 -1210 q 102 -1289 102 -1336 z"},"M":{"ha":2192,"x_min":122,"x_max":2115,"o":"m 2108 -374 l 2108 -374 q 2108 -356 2110 -318 q 2112 -281 2113 -247 q 2114 -213 2115 -171 q 2115 -130 2112 -96 q 2108 -63 2101 -33 q 2094 -4 2080 12 q 2065 28 2044 28 l 2044 28 l 1588 28 q 1540 -9 1540 -248 l 1540 -248 q 1540 -335 1541 -457 q 1542 -580 1542 -632 l 1542 -632 l 1542 -702 q 1542 -711 1541 -736 q 1539 -762 1540 -776 l 1540 -776 q 1500 -631 1442 -361 q 1384 -91 1362 0 l 1362 0 q 1352 28 1270 28 l 1270 28 l 916 28 q 851 28 840 -6 l 840 -6 l 744 -424 q 731 -488 716 -557 q 700 -626 679 -714 q 658 -802 648 -844 l 648 -844 q 636 -524 636 -356 l 636 -356 l 636 -180 q 636 -62 638 -2 l 638 -2 q 632 20 616 20 l 616 20 l 522 20 q 463 20 349 21 q 235 22 176 22 l 176 22 q 122 22 122 4 l 122 4 l 122 -1480 q 122 -1489 127 -1495 q 131 -1502 141 -1505 q 150 -1509 159 -1511 q 168 -1513 182 -1513 q 196 -1514 205 -1514 q 214 -1515 228 -1514 q 242 -1514 246 -1514 l 246 -1514 l 364 -1514 q 649 -1514 766 -1506 q 882 -1498 944 -1498 l 944 -1498 q 968 -1364 1020 -1100 l 1020 -1100 l 1096 -702 l 1256 -1510 q 1256 -1510 1264 -1508 q 1272 -1506 1276 -1506 l 1276 -1506 q 1383 -1506 1592 -1509 q 1801 -1512 1908 -1512 l 1908 -1512 l 2056 -1512 q 2084 -1509 2084 -1456 l 2084 -1456 q 2106 -487 2108 -374 z"},"N":{"ha":1726,"x_min":80,"x_max":1614,"o":"m 124 28 l 80 4 l 80 -448 q 78 -696 96 -1394 l 96 -1394 l 96 -1476 q 96 -1498 104 -1502 l 104 -1502 l 792 -1502 q 802 -1502 833 -1426 q 863 -1350 907 -1230 q 950 -1111 968 -1066 l 968 -1066 l 1108 -700 l 1108 -1088 q 1108 -1138 1111 -1271 q 1113 -1405 1112 -1480 l 1112 -1480 q 1112 -1508 1272 -1508 l 1272 -1508 q 1322 -1508 1409 -1506 q 1496 -1504 1516 -1504 l 1516 -1504 l 1592 -1504 q 1608 -1504 1608 -1498 l 1608 -1498 q 1614 -1220 1614 -702 l 1614 -702 l 1614 -8 q 1607 18 1550 18 l 1550 18 l 1524 18 q 1472 18 1371 20 q 1270 22 1218 22 l 1218 22 l 924 22 q 910 17 866 -104 l 866 -104 q 819 -235 726 -483 q 633 -731 622 -760 l 622 -760 q 622 -701 621 -584 q 620 -467 620 -408 l 620 -408 q 620 -364 622 -276 q 624 -188 624 -144 l 624 -144 l 624 -18 q 624 28 584 28 l 584 28 l 124 28 z m 1608 -1496 l 1608 -1500 l 1608 -1496 z"},"O":{"ha":1644,"x_min":24,"x_max":1596,"o":"m 24 -752 l 24 -752 l 24 -862 q 34 -1002 85 -1117 q 136 -1233 215 -1312 q 293 -1391 396 -1445 q 499 -1500 612 -1525 q 724 -1550 844 -1550 l 844 -1550 q 910 -1550 982 -1539 q 1053 -1528 1133 -1504 q 1213 -1480 1287 -1433 q 1360 -1387 1408 -1324 l 1408 -1324 q 1507 -1203 1552 -1070 q 1596 -938 1596 -776 l 1596 -776 q 1599 -438 1448 -232 l 1448 -232 l 1404 -172 q 1346 -92 1238 -38 q 1130 15 1022 36 q 914 56 804 56 l 804 56 q 675 56 566 30 q 457 4 378 -40 q 299 -84 237 -147 q 175 -210 136 -280 q 96 -350 71 -432 q 45 -514 35 -592 q 24 -670 24 -752 z m 820 -1148 l 820 -1148 q 779 -1148 747 -1129 q 714 -1110 694 -1083 q 673 -1056 658 -1010 q 643 -965 636 -928 q 629 -892 625 -836 q 621 -781 621 -750 q 620 -720 620 -672 l 620 -672 q 620 -626 624 -584 q 627 -543 639 -496 q 650 -450 669 -415 q 687 -381 720 -357 q 752 -334 794 -332 l 794 -332 q 838 -332 872 -346 q 906 -361 929 -383 q 952 -406 968 -444 q 984 -482 993 -517 q 1001 -552 1006 -604 q 1010 -656 1011 -693 q 1012 -731 1012 -788 l 1012 -788 q 1012 -830 1010 -866 q 1007 -902 1001 -946 q 995 -990 981 -1023 q 967 -1057 947 -1086 q 927 -1116 895 -1132 q 862 -1148 820 -1148 z"},"P":{"ha":1526,"x_min":104,"x_max":1520,"o":"m 104 -136 l 104 -136 l 104 -1468 q 104 -1475 111 -1480 q 117 -1485 131 -1487 q 145 -1489 156 -1490 q 166 -1491 186 -1491 q 205 -1492 212 -1492 l 212 -1492 l 1024 -1492 q 1124 -1492 1213 -1460 q 1302 -1429 1371 -1369 q 1440 -1309 1480 -1214 q 1520 -1119 1520 -1000 l 1520 -1000 q 1520 -912 1500 -839 q 1479 -766 1446 -714 q 1412 -663 1364 -622 q 1315 -581 1265 -556 q 1214 -531 1153 -513 q 1092 -496 1041 -488 q 989 -480 932 -476 l 932 -476 l 740 -476 q 732 -319 732 -124 l 732 -124 l 732 -12 q 729 24 698 24 l 698 24 l 130 24 q 104 -45 104 -136 z m 668 -836 l 668 -836 l 700 -792 q 741 -792 779 -798 q 816 -804 852 -819 q 888 -834 914 -857 q 940 -881 956 -917 q 972 -954 972 -1000 l 972 -1000 q 972 -1035 963 -1062 q 953 -1090 940 -1107 q 926 -1125 903 -1138 q 879 -1151 859 -1157 q 838 -1164 807 -1167 q 775 -1171 755 -1171 q 734 -1172 702 -1172 l 702 -1172 q 668 -1156 668 -836 z"},"Q":{"ha":1642,"x_min":40,"x_max":1648,"o":"m 40 -748 l 40 -748 q 40 -918 86 -1055 q 132 -1192 210 -1283 q 287 -1374 393 -1435 q 499 -1497 614 -1523 q 729 -1550 856 -1550 l 856 -1550 q 1030 -1550 1173 -1491 q 1315 -1432 1409 -1329 q 1502 -1227 1553 -1088 q 1604 -949 1604 -788 l 1604 -788 q 1604 -681 1573 -576 q 1542 -471 1486 -396 l 1486 -396 q 1499 -396 1525 -397 q 1551 -398 1564 -398 l 1564 -398 q 1648 -398 1648 -336 l 1648 -336 l 1648 4 q 1647 20 1638 29 q 1628 38 1608 44 l 1608 44 q 1529 30 1332 30 l 1332 30 q 1229 30 1054 49 q 878 68 792 68 l 792 68 q 388 68 196 -244 l 196 -244 q 116 -324 78 -466 q 40 -608 40 -748 z m 620 -728 l 620 -728 q 620 -686 621 -659 q 621 -632 625 -585 q 628 -538 635 -506 q 642 -474 656 -436 q 669 -398 689 -375 q 708 -352 738 -336 q 768 -320 806 -320 l 806 -320 l 806 -344 q 806 -348 816 -348 l 816 -348 q 821 -348 833 -346 q 845 -344 850 -344 l 850 -344 q 891 -344 922 -366 q 952 -389 969 -429 q 986 -469 997 -511 q 1008 -554 1011 -607 q 1014 -661 1015 -695 q 1015 -730 1014 -770 l 1014 -770 l 1012 -810 q 1012 -855 1010 -890 q 1008 -926 1002 -970 q 996 -1015 983 -1047 q 969 -1080 950 -1109 q 930 -1138 898 -1153 q 865 -1168 824 -1168 l 824 -1168 q 782 -1168 748 -1148 q 714 -1128 693 -1092 q 671 -1056 656 -1013 q 641 -971 634 -918 q 626 -866 623 -821 q 620 -777 620 -728 z"},"R":{"ha":1560,"x_min":96,"x_max":1560,"o":"m 1552 4 l 1552 4 q 1530 26 1460 30 q 1389 34 1286 28 q 1183 22 1176 22 l 1176 22 q 1108 22 1078 20 l 1078 20 l 978 20 q 956 13 941 -45 q 926 -104 912 -213 q 897 -323 896 -330 l 896 -330 q 892 -429 864 -460 q 836 -492 762 -492 l 762 -492 l 718 -492 l 718 -4 q 716 8 697 16 q 678 24 643 27 q 607 29 580 30 q 552 30 507 29 q 462 28 452 28 l 452 28 l 308 28 q 186 28 124 30 l 124 30 q 110 24 96 16 l 96 16 l 96 -1476 q 96 -1504 176 -1504 l 176 -1504 l 1048 -1504 q 1275 -1498 1394 -1396 q 1512 -1294 1512 -1108 l 1512 -1108 q 1512 -866 1268 -754 l 1268 -754 q 1313 -740 1349 -715 q 1385 -690 1409 -661 q 1433 -633 1451 -593 q 1469 -553 1479 -518 q 1489 -483 1497 -435 q 1504 -387 1507 -352 q 1510 -317 1515 -268 q 1519 -220 1522 -192 l 1522 -192 l 1522 -104 q 1525 -88 1541 -59 q 1556 -30 1560 -16 l 1560 -16 q 1560 4 1552 4 z m 712 -1080 l 712 -1080 q 712 -1020 713 -991 q 714 -962 724 -915 q 734 -868 754 -848 l 754 -848 q 796 -848 834 -857 q 871 -866 906 -886 q 941 -906 962 -945 q 982 -985 982 -1040 l 982 -1040 q 982 -1071 971 -1094 q 960 -1118 939 -1132 q 918 -1146 898 -1154 q 877 -1163 848 -1166 q 818 -1170 801 -1171 q 784 -1172 760 -1172 l 760 -1172 l 736 -1172 q 721 -1165 717 -1144 q 712 -1123 712 -1080 z"},"S":{"ha":1484,"x_min":40,"x_max":1464,"o":"m 728 60 l 728 60 q 610 55 516 40 q 422 24 335 -10 q 247 -45 188 -97 q 128 -150 89 -232 q 49 -314 40 -422 l 40 -422 q 40 -441 60 -444 l 60 -444 q 66 -442 80 -442 l 80 -442 q 163 -442 332 -446 q 501 -450 584 -450 l 584 -450 q 605 -450 617 -436 q 629 -423 637 -403 q 644 -384 655 -364 q 665 -345 691 -331 q 716 -318 756 -318 l 756 -318 q 805 -318 843 -345 q 880 -373 880 -420 l 880 -420 q 880 -451 848 -477 q 816 -503 764 -519 q 711 -536 664 -547 q 616 -559 566 -567 q 516 -576 508 -578 l 508 -578 q 265 -644 159 -742 q 52 -840 52 -1010 l 52 -1010 q 52 -1130 96 -1225 q 140 -1321 211 -1381 q 282 -1442 379 -1482 q 476 -1523 575 -1539 q 674 -1556 780 -1556 l 780 -1556 q 1061 -1556 1228 -1452 l 1228 -1452 q 1289 -1391 1318 -1359 q 1346 -1328 1373 -1286 q 1399 -1244 1410 -1203 q 1420 -1163 1424 -1104 l 1424 -1104 l 1388 -1068 q 1183 -1060 928 -1060 l 928 -1060 q 896 -1060 877 -1067 q 857 -1074 851 -1085 q 844 -1096 838 -1108 q 831 -1120 826 -1131 q 820 -1142 803 -1149 q 785 -1156 756 -1156 l 756 -1156 q 748 -1156 731 -1153 q 713 -1150 690 -1143 q 666 -1137 649 -1123 q 632 -1110 632 -1092 l 632 -1092 q 632 -1070 655 -1052 q 677 -1034 702 -1026 q 727 -1018 764 -1008 q 801 -999 810 -996 l 810 -996 q 1028 -941 1070 -928 l 1070 -928 q 1289 -859 1380 -747 l 1380 -747 q 1464 -643 1464 -486 l 1464 -486 q 1464 -391 1440 -313 q 1415 -235 1375 -181 q 1335 -127 1275 -85 q 1215 -43 1154 -18 q 1092 7 1014 24 q 936 41 871 49 q 805 56 728 60 z"},"T":{"ha":1318,"x_min":-16,"x_max":1332,"o":"m -16 -1198 l -16 -1198 q -16 -1216 -14 -1251 q -12 -1287 -12 -1300 l -12 -1300 q -12 -1305 -14 -1336 q -16 -1367 -16 -1390 l -16 -1390 q -16 -1496 4 -1496 l 4 -1496 q 12 -1496 18 -1494 l 18 -1494 q 227 -1494 638 -1499 q 1048 -1504 1252 -1504 l 1252 -1504 q 1303 -1504 1317 -1495 q 1330 -1486 1330 -1460 l 1330 -1460 l 1330 -1432 q 1330 -1380 1331 -1278 q 1332 -1177 1332 -1124 l 1332 -1124 q 1332 -1072 1304 -1072 l 1304 -1072 q 1248 -1072 1137 -1074 q 1026 -1076 970 -1076 l 970 -1076 l 970 -4 q 963 26 936 28 l 936 28 q 901 28 834 27 q 767 26 732 26 l 732 26 q 730 26 728 28 l 728 28 q 684 28 605 27 q 525 26 486 26 l 486 26 l 426 26 q 406 28 368 28 l 368 28 l 328 -20 q 328 -172 338 -472 q 348 -772 348 -924 l 348 -924 q 348 -931 348 -947 q 347 -963 347 -973 q 347 -983 346 -998 q 344 -1013 341 -1022 q 337 -1032 332 -1041 q 327 -1051 319 -1055 q 310 -1060 298 -1060 l 298 -1060 l 12 -1060 q -16 -1068 -16 -1198 z"},"U":{"ha":1614,"x_min":92,"x_max":1544,"o":"m 92 -498 l 92 -498 q 96 -990 96 -1232 l 96 -1232 l 96 -1244 q 96 -1251 94 -1293 q 92 -1336 92 -1366 l 92 -1366 q 92 -1486 112 -1502 l 112 -1502 q 117 -1502 127 -1501 q 137 -1500 142 -1500 l 142 -1500 q 310 -1508 532 -1508 l 532 -1508 l 668 -1508 q 676 -1507 690 -1501 q 703 -1496 708 -1496 l 708 -1496 q 709 -1447 713 -1327 q 716 -1207 718 -1119 q 719 -1031 718 -946 l 718 -946 l 718 -556 q 718 -519 720 -496 q 722 -473 730 -442 q 737 -411 757 -395 q 776 -380 806 -380 l 806 -380 q 848 -380 874 -415 q 900 -451 900 -498 l 900 -498 l 900 -864 q 899 -931 902 -1075 q 904 -1219 902 -1300 l 902 -1300 l 902 -1372 q 902 -1383 900 -1405 q 898 -1428 898 -1440 l 898 -1440 l 898 -1488 q 901 -1511 924 -1516 l 924 -1516 q 1116 -1516 1500 -1512 l 1500 -1512 l 1500 -1496 l 1544 -1496 q 1536 -1283 1536 -1000 l 1536 -1000 l 1536 -776 q 1536 -731 1534 -638 q 1532 -545 1532 -500 l 1532 -500 q 1532 -370 1491 -270 q 1450 -170 1383 -109 q 1316 -48 1221 -9 q 1126 30 1029 45 q 932 60 820 60 l 820 60 q 712 60 618 47 q 523 33 426 -5 q 329 -44 259 -104 q 189 -164 143 -265 q 97 -366 92 -498 z"},"V":{"ha":1554,"x_min":-35,"x_max":1585,"o":"m 391 36 l -35 -1475 q -35 -1504 -1 -1504 l -1 -1504 q 96 -1504 283 -1506 q 469 -1508 561 -1508 l 561 -1508 q 589 -1508 609 -1480 l 609 -1480 l 781 -484 q 797 -580 838 -754 q 879 -929 891 -986 l 891 -986 l 991 -1486 q 999 -1510 1401 -1510 l 1401 -1510 l 1561 -1510 q 1580 -1503 1585 -1476 l 1585 -1476 l 1361 -666 q 1354 -639 1335 -546 q 1315 -454 1296 -369 q 1276 -285 1251 -193 q 1226 -101 1198 -41 q 1169 19 1143 28 l 1143 28 q 1107 28 1036 25 q 965 22 929 22 l 929 22 l 857 22 q 789 28 709 30 q 628 32 537 33 q 446 34 391 36 l 391 36 z"},"W":{"ha":2130,"x_min":-44,"x_max":2161,"o":"m 1193 26 l 1069 -780 q 1065 -753 1054 -653 q 1042 -553 1028 -443 q 1014 -333 997 -222 q 980 -112 958 -40 q 936 32 914 32 l 914 32 q 871 32 787 30 q 703 28 660 28 l 660 28 q 467 28 304 36 l 304 36 q 290 29 280 14 q 269 -1 263 -22 q 256 -43 253 -59 q 249 -76 246 -101 q 242 -127 240 -136 l 240 -136 q 67 -961 26 -1140 l 26 -1140 l -44 -1476 q -44 -1504 -16 -1514 l -16 -1514 q 8 -1512 60 -1512 l 60 -1512 l 140 -1512 q 164 -1512 209 -1514 q 254 -1516 274 -1516 l 274 -1516 q 293 -1517 330 -1515 q 367 -1514 378 -1514 l 378 -1514 l 436 -1514 q 446 -1512 466 -1512 l 466 -1512 l 496 -1512 q 514 -1507 532 -1443 q 550 -1379 566 -1267 q 582 -1155 592 -1071 q 602 -988 615 -869 q 627 -751 627 -749 l 627 -749 l 754 -1510 q 802 -1506 830 -1506 l 830 -1506 l 892 -1506 q 973 -1506 1127 -1507 q 1280 -1508 1356 -1508 l 1356 -1508 q 1377 -1508 1382 -1492 l 1382 -1492 l 1507 -665 q 1526 -893 1554 -1082 l 1554 -1082 l 1614 -1488 q 1621 -1512 1684 -1512 l 1684 -1512 l 1732 -1512 q 1744 -1513 1770 -1511 q 1795 -1510 1806 -1510 l 1806 -1510 l 1894 -1510 q 1931 -1510 1978 -1509 q 2024 -1508 2026 -1508 l 2026 -1508 l 2144 -1508 q 2153 -1508 2156 -1494 q 2159 -1481 2161 -1450 l 2161 -1450 l 1839 22 q 1819 24 1791 24 q 1763 24 1740 24 q 1717 23 1687 23 q 1657 22 1638 22 l 1638 22 q 1597 22 1514 21 q 1430 20 1388 20 l 1388 20 q 1383 20 1193 26 l 1193 26 z"},"X":{"ha":1600,"x_min":-36,"x_max":1632,"o":"m -36 0 l -36 0 q -36 -28 0 -84 l 0 -84 q 85 -214 243 -462 q 401 -710 428 -752 l 428 -752 q 146 -1237 0 -1476 l 0 -1476 l 0 -1486 q 0 -1497 12 -1506 l 12 -1506 q 76 -1506 202 -1503 q 328 -1500 392 -1500 l 392 -1500 q 409 -1501 440 -1499 q 470 -1498 480 -1498 l 480 -1498 l 550 -1498 q 572 -1500 620 -1500 l 620 -1500 q 633 -1497 660 -1451 q 687 -1405 714 -1344 l 714 -1344 l 815 -1106 q 818 -1112 922 -1336 l 922 -1336 l 960 -1416 q 998 -1500 1012 -1500 l 1012 -1500 q 1013 -1500 1015 -1499 q 1016 -1499 1019 -1498 q 1022 -1497 1024 -1496 l 1024 -1496 q 1076 -1498 1200 -1502 q 1324 -1507 1415 -1509 q 1506 -1512 1592 -1512 l 1592 -1512 q 1620 -1506 1620 -1468 l 1620 -1468 l 1620 -1456 q 1267 -898 1170 -740 l 1170 -740 l 1370 -433 q 1420 -355 1513 -210 q 1606 -65 1632 -24 l 1632 -24 l 1632 -4 q 1632 32 1570 32 l 1570 32 q 1489 32 1332 34 q 1175 36 1100 36 l 1100 36 l 1052 36 q 999 36 972 16 l 972 16 l 789 -371 q 781 -354 768 -320 q 754 -287 741 -255 q 727 -224 710 -185 q 693 -147 676 -114 q 658 -81 640 -51 q 621 -21 601 1 q 581 22 562 30 l 562 30 q 338 26 234 26 l 234 26 q 191 26 111 27 q 31 28 -12 28 l -12 28 q -36 19 -36 0 z"},"Y":{"ha":1524,"x_min":-54,"x_max":1569,"o":"m 1569 -1462 l 1569 -1462 q 1506 -1336 1334 -1009 q 1161 -683 1073 -500 l 1073 -500 l 1073 0 q 1068 17 1060 25 q 1052 32 1033 32 l 1033 32 q 939 32 754 34 q 568 36 469 36 l 469 36 q 433 0 433 -48 l 433 -48 q 437 -70 438 -98 q 439 -126 438 -169 q 437 -212 437 -224 l 437 -224 l 437 -296 q 437 -535 337 -726 l 337 -726 q 322 -757 306 -791 q 289 -825 274 -857 q 259 -889 243 -922 q 227 -955 212 -988 q 196 -1021 181 -1053 q 166 -1085 150 -1119 q 133 -1153 117 -1184 l 117 -1184 l -54 -1471 q -54 -1484 -33 -1495 q -12 -1506 9 -1506 l 9 -1506 l 261 -1506 q 313 -1506 418 -1505 q 522 -1504 573 -1504 l 573 -1504 q 587 -1502 604 -1475 q 621 -1448 640 -1402 q 658 -1356 676 -1304 q 694 -1253 712 -1191 q 730 -1129 744 -1082 q 757 -1035 771 -986 q 784 -937 788 -922 l 788 -922 l 971 -1508 l 1535 -1508 q 1549 -1506 1556 -1496 q 1563 -1487 1569 -1462 z"},"Z":{"ha":1394,"x_min":14,"x_max":1372,"o":"m 14 -16 l 14 -16 l 14 -48 q 14 -134 17 -251 q 20 -368 24 -368 l 24 -368 q 25 -367 53 -403 q 81 -439 158 -534 q 234 -629 316 -730 l 316 -730 l 608 -1086 q 517 -1086 340 -1083 q 163 -1080 72 -1080 l 72 -1080 q 57 -1084 53 -1095 q 48 -1107 48 -1128 l 48 -1128 l 48 -1248 q 48 -1258 44 -1320 q 40 -1382 40 -1416 l 40 -1416 q 40 -1496 60 -1496 l 60 -1496 q 400 -1496 1052 -1504 l 1052 -1504 l 1264 -1504 q 1322 -1504 1335 -1494 q 1348 -1484 1348 -1428 l 1348 -1428 q 1348 -1414 1346 -1392 q 1344 -1371 1344 -1368 l 1344 -1368 l 1344 -1362 q 1344 -1275 1334 -1206 q 1323 -1138 1310 -1093 q 1296 -1049 1265 -1001 q 1233 -953 1209 -925 q 1185 -898 1134 -842 q 1083 -787 1050 -748 l 1050 -748 l 760 -404 l 1336 -404 q 1347 -404 1354 -388 q 1361 -373 1364 -340 q 1367 -307 1368 -283 q 1368 -260 1368 -216 l 1368 -216 l 1368 -124 q 1368 -115 1370 -88 q 1372 -62 1372 -48 l 1372 -48 q 1372 -2 1356 11 q 1340 24 1296 24 l 1296 24 l 1272 24 q 1076 24 688 30 q 299 36 104 36 l 104 36 q 70 36 55 27 q 40 18 14 -16 z"},"a":{"ha":1482,"x_min":-32,"x_max":1508,"o":"m 860 -248 l 552 -248 q 545 -225 539 -187 q 532 -150 527 -128 q 521 -107 508 -83 q 495 -60 469 -49 q 442 -38 400 -38 l 400 -38 l -32 -38 l -32 -72 q 21 -231 123 -560 q 224 -889 280 -1058 l 280 -1058 l 280 -1056 q 314 -1153 380 -1360 l 380 -1360 q 381 -1362 383 -1365 l 383 -1365 q 392 -1380 400 -1388 l 400 -1388 l 940 -1384 q 1078 -1384 1092 -1360 l 1092 -1360 l 1092 -1334 q 1094 -1325 1114 -1288 l 1114 -1288 q 1211 -991 1256 -856 l 1256 -856 l 1256 -844 q 1260 -815 1274 -778 q 1288 -741 1308 -698 q 1327 -656 1335 -632 l 1335 -632 l 1375 -488 q 1410 -372 1478 -178 l 1478 -178 l 1478 -180 l 1478 -160 q 1481 -146 1493 -122 q 1505 -98 1508 -88 l 1508 -88 q 1508 -60 1497 -52 q 1485 -44 1452 -44 l 1452 -44 l 988 -44 q 971 -46 966 -47 q 961 -48 951 -51 q 940 -54 936 -59 q 931 -64 930 -72 l 930 -72 l 892 -224 q 888 -243 884 -245 q 880 -248 860 -248 l 860 -248 z m 600 -600 l 600 -604 l 600 -600 z m 820 -724 l 820 -724 q 814 -752 803 -814 q 791 -877 780 -923 q 769 -970 756 -1010 l 756 -1010 l 756 -1058 q 748 -1079 728 -1088 l 728 -1088 l 728 -1086 q 704 -1081 680 -952 l 680 -952 l 680 -904 q 678 -897 671 -891 q 664 -885 664 -884 l 664 -884 q 631 -738 610 -648 l 610 -648 q 610 -638 605 -613 q 600 -588 600 -584 l 600 -584 l 848 -584 q 848 -610 830 -678 l 830 -678 l 830 -700 q 829 -703 825 -711 q 820 -720 820 -724 z"},"b":{"ha":1408,"x_min":88,"x_max":1360,"o":"m 1142 -748 l 1142 -748 q 1193 -748 1236 -716 q 1279 -684 1305 -635 q 1331 -587 1346 -534 q 1360 -482 1360 -436 l 1360 -436 q 1356 -314 1291 -223 q 1225 -133 1116 -94 l 1116 -94 l 1032 -44 l 88 -44 l 88 -1388 l 848 -1388 q 1074 -1388 1206 -1292 l 1206 -1292 q 1264 -1254 1294 -1182 q 1324 -1110 1324 -1030 l 1324 -1030 q 1324 -928 1280 -866 q 1235 -804 1142 -748 z m 624 -620 l 624 -620 l 584 -371 q 584 -367 598 -361 q 612 -356 622 -354 l 622 -354 l 700 -354 q 765 -359 805 -386 q 844 -414 844 -478 l 844 -478 q 844 -501 839 -520 q 834 -539 827 -553 q 819 -567 806 -578 q 793 -589 782 -596 q 770 -603 751 -607 q 732 -612 720 -614 q 707 -617 687 -618 q 666 -620 655 -620 q 644 -620 624 -620 z m 604 -1060 l 604 -1060 q 612 -1015 612 -956 l 612 -956 l 612 -936 q 612 -933 611 -926 q 610 -919 610 -916 l 610 -916 q 610 -912 611 -898 q 612 -885 612 -876 l 612 -876 l 612 -844 q 612 -833 620 -830 l 620 -830 q 646 -830 661 -831 q 676 -832 705 -835 q 733 -838 751 -847 q 769 -856 788 -870 q 807 -885 817 -910 q 826 -935 826 -968 l 826 -968 q 826 -1013 796 -1041 q 766 -1069 728 -1077 q 690 -1086 642 -1086 l 642 -1086 q 638 -1084 620 -1084 l 620 -1084 l 620 -1086 q 604 -1080 604 -1060 z"},"c":{"ha":1390,"x_min":36,"x_max":1356,"o":"m 728 -8 l 728 -8 q 561 -8 428 -64 q 295 -121 210 -221 q 125 -321 81 -454 q 36 -588 36 -746 l 36 -746 l 36 -760 q 37 -767 40 -794 q 42 -822 43 -830 q 43 -839 46 -863 q 49 -887 51 -898 q 53 -909 57 -930 q 60 -951 65 -964 q 69 -978 75 -997 q 81 -1016 88 -1033 q 95 -1050 104 -1068 l 104 -1068 l 104 -1066 q 150 -1162 220 -1232 q 290 -1302 374 -1340 q 458 -1379 546 -1396 q 634 -1414 732 -1414 l 732 -1414 q 856 -1414 956 -1389 q 1056 -1365 1122 -1324 q 1188 -1283 1235 -1224 q 1282 -1166 1306 -1104 q 1330 -1042 1340 -970 l 1340 -970 l 1340 -884 q 1337 -870 1325 -862 q 1313 -855 1299 -853 q 1285 -852 1260 -852 l 1260 -852 l 832 -852 l 832 -938 q 827 -972 803 -1000 q 779 -1028 744 -1028 l 744 -1028 q 713 -1028 690 -1015 q 666 -1002 653 -980 q 639 -959 631 -930 q 622 -902 620 -870 q 617 -839 616 -806 q 614 -774 616 -745 l 616 -745 q 616 -725 616 -716 l 616 -716 l 616 -604 q 616 -579 619 -555 q 621 -532 631 -495 q 640 -458 664 -435 q 688 -412 724 -412 l 724 -412 q 762 -412 781 -444 q 799 -476 812 -521 q 824 -566 840 -582 l 840 -582 q 880 -582 960 -581 q 1040 -580 1080 -580 l 1080 -580 q 1108 -580 1163 -581 q 1218 -582 1246 -582 l 1246 -582 l 1320 -582 q 1353 -582 1356 -542 l 1356 -542 l 1356 -504 q 1334 -305 1209 -183 q 1084 -61 896 -28 l 896 -28 l 896 -22 q 829 -8 728 -8 z"},"d":{"ha":1456,"x_min":102,"x_max":1412,"o":"m 386 -1388 l 642 -1388 q 779 -1388 889 -1370 q 998 -1352 1099 -1306 q 1199 -1260 1266 -1186 q 1333 -1112 1373 -994 q 1412 -876 1412 -720 l 1412 -720 q 1412 -606 1385 -507 q 1358 -409 1311 -338 q 1264 -267 1204 -211 q 1143 -156 1072 -121 q 1001 -86 930 -67 q 859 -48 788 -44 l 788 -44 l 102 -44 l 102 -1372 q 105 -1372 113 -1371 q 121 -1370 124 -1370 l 124 -1370 q 167 -1370 255 -1379 q 342 -1388 386 -1388 l 386 -1388 z m 606 -356 l 654 -356 q 705 -356 744 -372 q 783 -389 807 -420 q 830 -451 846 -485 q 861 -519 868 -565 q 875 -611 878 -645 q 880 -680 880 -724 l 880 -724 l 880 -796 q 879 -803 874 -864 q 869 -925 852 -968 l 852 -968 q 836 -999 817 -1021 q 797 -1044 778 -1056 q 759 -1069 734 -1075 q 708 -1082 687 -1084 q 666 -1086 636 -1086 l 636 -1086 l 636 -1064 l 606 -1064 l 606 -356 z"},"e":{"ha":1166,"x_min":84,"x_max":1142,"o":"m 84 -74 l 84 -1292 q 84 -1352 89 -1362 l 89 -1362 q 98 -1376 118 -1376 l 118 -1376 l 142 -1376 q 158 -1376 164 -1374 l 164 -1374 l 216 -1374 q 317 -1374 522 -1379 q 726 -1384 828 -1384 l 828 -1384 l 1094 -1384 q 1120 -1381 1120 -1358 l 1120 -1358 l 1120 -1024 q 1119 -1018 1117 -1013 q 1114 -1009 1113 -1007 q 1111 -1006 1103 -1000 q 1095 -995 1092 -992 l 1092 -992 l 628 -992 l 628 -868 l 672 -868 q 730 -868 849 -872 q 968 -876 1032 -876 l 1032 -876 q 1060 -876 1070 -865 q 1080 -854 1080 -834 l 1080 -834 q 1080 -829 1078 -817 q 1076 -805 1076 -800 l 1076 -800 l 1076 -762 q 1076 -758 1077 -745 q 1078 -733 1078 -724 l 1078 -724 l 1078 -696 q 1078 -674 1080 -652 q 1082 -630 1082 -614 l 1082 -614 l 1082 -588 q 1077 -576 1074 -572 q 1071 -568 1064 -568 l 1064 -568 l 1064 -570 q 1027 -570 937 -565 q 846 -560 792 -560 l 792 -560 l 632 -560 l 632 -432 q 640 -432 656 -431 q 672 -430 680 -430 l 680 -430 q 725 -430 813 -433 q 901 -436 940 -436 l 940 -436 l 1068 -436 q 1120 -436 1134 -424 l 1134 -424 q 1139 -418 1142 -412 l 1142 -412 l 1142 -92 q 1142 -71 1134 -60 q 1126 -49 1104 -48 l 1104 -48 l 114 -48 l 84 -74 z"},"f":{"ha":1126,"x_min":88,"x_max":1119,"o":"m 114 -40 l 88 -84 l 88 -1352 q 88 -1368 98 -1375 q 108 -1383 117 -1383 q 125 -1384 148 -1384 l 148 -1384 l 1092 -1384 q 1100 -1384 1105 -1381 q 1110 -1379 1113 -1376 q 1116 -1374 1117 -1368 q 1118 -1363 1119 -1360 q 1119 -1357 1119 -1351 q 1118 -1345 1118 -1344 l 1118 -1344 l 1118 -1004 l 650 -1004 l 650 -968 q 650 -956 654 -904 l 654 -904 l 748 -904 q 762 -905 799 -910 q 835 -916 856 -916 l 856 -916 l 938 -916 q 966 -916 980 -918 l 980 -918 q 1021 -918 1055 -908 q 1089 -898 1092 -886 l 1092 -886 l 1092 -828 q 1092 -809 1090 -769 q 1088 -730 1088 -710 l 1088 -710 l 1088 -620 q 1090 -612 1090 -592 l 1090 -592 l 1090 -552 q 1086 -520 1028 -520 l 1028 -520 l 964 -520 q 930 -520 867 -518 q 803 -516 768 -516 l 768 -516 l 656 -516 l 656 -40 l 114 -40 z"},"g":{"ha":1502,"x_min":40,"x_max":1428,"o":"m 1420 -220 l 1420 -132 q 1412 -95 1285 -65 q 1157 -36 1031 -24 q 904 -12 830 -12 l 830 -12 q 752 -12 695 -16 q 637 -20 558 -33 q 478 -47 405 -79 q 332 -112 268 -162 l 268 -162 l 226 -198 q 209 -210 192 -234 l 192 -234 l 160 -276 q 40 -465 40 -716 l 40 -716 q 40 -965 166 -1140 l 166 -1140 l 194 -1174 l 194 -1188 l 194 -1186 q 374 -1416 788 -1416 l 788 -1416 q 848 -1416 919 -1405 q 989 -1395 1069 -1372 q 1148 -1350 1219 -1306 q 1290 -1262 1332 -1204 l 1332 -1204 q 1353 -1176 1364 -1141 q 1375 -1107 1385 -1052 q 1394 -998 1400 -972 l 1400 -972 q 1400 -938 1336 -938 l 1336 -938 l 1254 -938 q 1226 -938 1140 -941 q 1053 -944 1002 -944 l 1002 -944 l 892 -944 q 878 -949 867 -975 q 855 -1002 852 -1006 l 852 -1006 l 852 -1004 q 834 -1044 772 -1044 l 772 -1044 q 731 -1044 701 -1026 q 670 -1009 654 -983 q 638 -958 629 -919 q 619 -881 617 -849 q 614 -817 614 -776 l 614 -776 q 614 -762 615 -737 q 616 -712 616 -704 l 616 -704 l 616 -628 q 616 -592 619 -565 q 621 -538 631 -504 q 641 -470 659 -448 q 677 -426 711 -411 q 745 -396 792 -396 l 792 -396 q 890 -396 946 -414 l 946 -414 l 946 -458 q 946 -466 945 -479 q 944 -492 944 -500 l 944 -500 q 944 -502 945 -510 q 946 -518 946 -524 l 946 -524 l 908 -524 q 900 -524 888 -523 q 876 -522 872 -522 l 872 -522 l 788 -522 l 754 -560 q 752 -570 752 -590 l 752 -590 l 752 -652 q 752 -664 753 -689 q 754 -714 754 -730 l 754 -730 l 754 -758 q 754 -760 755 -767 q 756 -774 756 -780 l 756 -780 l 756 -788 q 756 -806 763 -817 q 770 -828 790 -840 l 790 -840 l 884 -840 q 894 -840 914 -836 l 914 -836 l 1004 -836 q 1104 -832 1152 -832 l 1152 -832 l 1248 -832 q 1400 -832 1428 -804 l 1428 -804 q 1428 -708 1424 -512 q 1420 -316 1420 -220 l 1420 -220 z"},"h":{"ha":1484,"x_min":81,"x_max":1380,"o":"m 1380 -1334 l 1380 -1334 l 1380 -104 q 1380 -83 1379 -70 q 1377 -58 1370 -47 q 1363 -36 1350 -36 l 1350 -36 l 840 -36 l 840 -58 q 838 -60 825 -67 q 811 -74 808 -80 l 808 -80 l 808 -484 q 808 -506 805 -509 q 801 -512 776 -512 l 776 -512 l 708 -512 q 684 -512 652 -508 l 652 -508 l 652 -76 q 648 -58 637 -53 q 625 -48 602 -48 l 602 -48 l 556 -48 q 509 -48 409 -46 q 308 -44 256 -44 l 256 -44 l 124 -44 q 81 -44 81 -92 l 81 -92 l 87 -1352 q 87 -1357 90 -1360 q 93 -1364 102 -1370 q 111 -1377 112 -1378 l 112 -1378 l 650 -1378 l 650 -948 l 824 -948 l 824 -1388 l 1334 -1388 q 1358 -1388 1369 -1377 q 1380 -1366 1380 -1334 z"},"i":{"ha":744,"x_min":72,"x_max":644,"o":"m 620 -38 l 72 -38 l 72 -1352 q 73 -1360 88 -1366 q 103 -1373 106 -1376 l 106 -1376 l 644 -1376 l 644 -74 q 639 -53 635 -45 q 630 -38 620 -38 l 620 -38 z"},"j":{"ha":1228,"x_min":-24,"x_max":1136,"o":"m 1136 -1356 l 1136 -480 q 1136 -392 1101 -315 q 1066 -239 1009 -186 q 952 -133 879 -94 q 806 -56 730 -38 q 653 -20 580 -20 l 580 -20 l 548 -20 q 540 -20 524 -19 q 508 -18 500 -18 l 500 -18 q 226 -18 86 -168 l 86 -168 l 86 -166 q -24 -285 -24 -444 l -24 -444 l -24 -480 q -24 -503 -19 -513 q -14 -524 4 -524 l 4 -524 l 76 -524 q 131 -524 241 -526 q 351 -528 406 -528 l 406 -528 q 441 -528 455 -510 q 469 -492 468 -470 q 467 -448 477 -430 q 486 -412 512 -412 l 512 -412 q 534 -412 546 -426 q 557 -440 560 -455 q 562 -471 563 -496 q 564 -522 566 -532 l 566 -532 l 566 -598 q 566 -688 568 -869 q 570 -1050 570 -1144 l 570 -1144 l 570 -1208 q 570 -1219 569 -1238 q 568 -1257 568 -1268 l 568 -1268 l 568 -1328 q 568 -1352 574 -1363 q 580 -1375 600 -1384 l 600 -1384 l 1070 -1384 q 1129 -1384 1136 -1356 l 1136 -1356 z m 572 -530 l 572 -536 q 566 -534 568 -530 l 568 -530 l 572 -530 z"},"k":{"ha":1470,"x_min":88,"x_max":1486,"o":"m 534 -36 l 112 -36 q 94 -66 88 -78 l 88 -78 l 88 -1392 l 530 -1392 q 533 -1392 546 -1392 q 559 -1393 566 -1392 q 573 -1392 586 -1391 q 598 -1390 606 -1387 q 614 -1385 623 -1380 q 631 -1376 637 -1368 q 642 -1360 644 -1350 l 644 -1350 l 644 -906 q 677 -972 737 -1096 q 796 -1220 824 -1276 l 824 -1276 l 873 -1381 l 968 -1384 q 988 -1384 1029 -1382 q 1069 -1380 1088 -1380 l 1088 -1380 l 1164 -1380 q 1172 -1380 1188 -1381 q 1203 -1382 1210 -1382 l 1210 -1382 l 1268 -1382 q 1272 -1382 1282 -1384 l 1282 -1384 q 1444 -1384 1444 -1360 l 1444 -1360 q 1444 -1346 1426 -1322 l 1426 -1322 q 1380 -1249 1271 -1055 q 1162 -862 1095 -764 l 1095 -764 l 1486 -90 q 1486 -89 1486 -83 q 1486 -77 1486 -75 q 1486 -73 1486 -68 q 1485 -64 1484 -61 q 1483 -59 1482 -55 q 1480 -52 1478 -49 q 1475 -47 1472 -44 l 1472 -44 q 1378 -50 1192 -50 l 1192 -50 q 1167 -50 1115 -49 q 1063 -48 1038 -48 l 1038 -48 l 902 -48 l 902 -76 q 886 -103 833 -182 q 780 -261 756 -306 l 756 -306 l 644 -520 l 644 -76 q 630 -36 534 -36 l 534 -36 z"},"l":{"ha":1126,"x_min":82,"x_max":1120,"o":"m 1024 -40 l 106 -40 q 103 -44 97 -49 q 90 -54 82 -68 l 82 -68 l 82 -500 q 82 -585 89 -761 q 96 -937 96 -1028 l 96 -1028 q 96 -1048 92 -1113 q 88 -1178 88 -1216 l 88 -1216 q 88 -1357 122 -1388 l 122 -1388 q 330 -1384 432 -1384 l 432 -1384 l 528 -1384 q 562 -1384 580 -1382 l 580 -1382 q 582 -1384 590 -1384 l 590 -1384 q 592 -1384 608 -1382 q 623 -1380 632 -1380 l 632 -1380 q 657 -1377 674 -1338 l 674 -1338 l 674 -1324 q 674 -1313 673 -1292 q 672 -1271 672 -1260 l 672 -1260 l 672 -1216 q 671 -1211 660 -1198 q 648 -1186 648 -1178 l 648 -1178 l 648 -448 l 1072 -448 q 1088 -448 1096 -447 q 1104 -446 1112 -438 q 1120 -430 1120 -414 l 1120 -414 l 1120 -80 q 1112 -40 1024 -40 l 1024 -40 z"},"m":{"ha":1972,"x_min":104,"x_max":1868,"o":"m 718 -1372 l 820 -1372 q 827 -1374 843 -1375 q 858 -1377 862 -1378 l 862 -1378 l 981 -769 l 1137 -1380 l 1840 -1380 q 1868 -1380 1868 -1262 l 1868 -1262 l 1868 -84 q 1866 -68 1859 -58 q 1852 -48 1839 -44 q 1825 -41 1818 -40 q 1810 -40 1792 -40 l 1792 -40 q 1729 -40 1601 -38 q 1472 -36 1408 -36 l 1408 -36 q 1358 -67 1358 -266 l 1358 -266 q 1358 -316 1360 -396 q 1362 -477 1362 -516 l 1362 -516 l 1362 -604 q 1362 -611 1361 -626 q 1360 -642 1360 -650 l 1360 -650 q 1360 -684 1364 -760 l 1364 -760 l 1364 -684 q 1350 -625 1310 -504 q 1270 -383 1256 -324 l 1256 -324 l 1196 -68 q 1180 -40 1096 -40 l 1096 -40 q 1055 -40 990 -42 q 924 -44 890 -44 l 890 -44 q 880 -44 856 -43 q 832 -42 826 -42 l 826 -42 q 794 -42 780 -50 q 766 -58 760 -82 l 760 -82 q 666 -499 630 -672 l 630 -672 l 594 -844 q 580 -553 580 -228 l 580 -228 l 580 -52 l 108 -52 q 108 -58 111 -78 q 114 -98 114 -100 l 114 -100 q 106 -292 106 -574 l 106 -574 q 106 -659 105 -800 q 104 -942 104 -996 l 104 -996 l 104 -1350 q 104 -1363 108 -1369 q 112 -1376 128 -1388 l 128 -1388 l 220 -1388 q 270 -1388 292 -1390 l 292 -1390 q 393 -1390 538 -1381 q 682 -1372 718 -1372 l 718 -1372 z m 1364 -768 l 1364 -766 l 1364 -768 z"},"n":{"ha":1548,"x_min":68,"x_max":1443,"o":"m 1074 -1376 l 1416 -1376 q 1428 -1372 1435 -1341 q 1441 -1311 1442 -1265 q 1443 -1219 1442 -1177 q 1441 -1135 1440 -1091 q 1438 -1047 1438 -1036 l 1438 -1036 q 1436 -996 1436 -924 l 1436 -924 l 1436 -818 q 1436 -748 1438 -626 q 1440 -504 1440 -446 l 1440 -446 l 1440 -82 q 1436 -48 1384 -48 l 1384 -48 l 824 -48 q 806 -52 778 -132 l 778 -132 q 759 -185 715 -306 q 670 -427 638 -518 q 606 -610 580 -696 l 580 -696 l 580 -702 l 580 -696 q 577 -630 574 -499 q 571 -369 568 -304 l 568 -304 l 568 -100 q 568 -70 561 -58 q 554 -47 524 -40 l 524 -40 l 112 -40 l 68 -84 q 73 -250 76 -604 q 79 -958 84 -1128 l 84 -1128 l 84 -1344 q 94 -1380 108 -1380 l 108 -1380 l 108 -1376 q 176 -1376 322 -1380 q 467 -1384 540 -1384 l 540 -1384 l 708 -1384 q 709 -1384 711 -1383 l 711 -1383 q 729 -1376 731 -1367 l 731 -1367 l 732 -1360 q 768 -1263 805 -1159 q 842 -1055 893 -907 q 944 -760 964 -704 l 964 -704 l 964 -852 q 984 -1204 984 -1352 l 984 -1352 q 984 -1368 1006 -1372 q 1028 -1376 1074 -1376 l 1074 -1376 z"},"o":{"ha":1454,"x_min":18,"x_max":1402,"o":"m 20 -664 l 20 -724 l 18 -746 q 37 -909 54 -973 l 54 -973 q 93 -1123 194 -1224 l 194 -1224 l 218 -1248 q 266 -1304 364 -1344 l 364 -1344 l 402 -1344 q 500 -1385 724 -1420 l 724 -1420 q 780 -1420 842 -1411 q 903 -1403 978 -1383 q 1053 -1364 1123 -1321 q 1192 -1279 1238 -1220 l 1238 -1220 l 1238 -1192 q 1402 -987 1402 -732 l 1402 -732 q 1402 -445 1270 -264 l 1270 -264 l 1230 -214 q 1184 -157 1116 -116 q 1047 -75 970 -53 q 893 -32 823 -23 q 752 -14 682 -14 l 682 -14 q 579 -14 486 -38 q 392 -63 311 -115 q 229 -167 167 -243 q 105 -319 67 -426 q 28 -534 20 -664 l 20 -664 z m 570 -760 l 570 -716 q 570 -364 704 -364 l 704 -364 q 741 -364 769 -378 q 796 -392 813 -421 q 830 -450 841 -480 q 852 -510 857 -555 q 861 -600 863 -634 q 864 -668 864 -716 l 864 -716 l 864 -752 q 864 -804 858 -852 q 852 -900 838 -948 q 823 -997 793 -1026 q 763 -1056 720 -1056 l 720 -1056 q 570 -1056 570 -760 l 570 -760 z"},"p":{"ha":1366,"x_min":83,"x_max":1352,"o":"m 584 -40 l 104 -40 l 83 -706 q 83 -775 85 -862 q 87 -949 90 -1019 q 93 -1089 96 -1178 q 98 -1267 98 -1340 l 98 -1340 q 98 -1360 112 -1365 q 125 -1371 146 -1369 q 166 -1367 192 -1372 l 192 -1372 l 908 -1372 q 969 -1372 1030 -1356 q 1091 -1341 1150 -1306 q 1208 -1272 1253 -1222 q 1297 -1173 1325 -1099 q 1352 -1025 1352 -936 l 1352 -936 q 1352 -818 1302 -726 q 1252 -635 1152 -554 l 1152 -554 q 1029 -490 856 -480 l 856 -480 l 824 -480 q 784 -472 744 -472 l 744 -472 l 664 -472 q 658 -472 654 -470 l 654 -470 q 654 -208 662 -74 l 662 -74 q 657 -54 641 -47 q 624 -40 584 -40 l 584 -40 z m 604 -804 l 604 -804 l 604 -786 q 605 -785 618 -779 q 630 -774 630 -772 l 630 -772 l 630 -770 q 628 -770 628 -774 l 628 -774 q 630 -772 640 -772 l 640 -772 q 729 -772 791 -812 q 852 -852 852 -936 l 852 -936 q 852 -974 839 -1001 q 826 -1028 808 -1042 q 789 -1057 758 -1064 q 726 -1072 700 -1074 q 674 -1076 634 -1076 l 634 -1076 q 633 -1075 626 -1069 q 619 -1063 616 -1060 l 616 -1060 l 616 -956 q 604 -860 604 -804 z"},"q":{"ha":1454,"x_min":36,"x_max":1460,"o":"m 36 -724 l 36 -724 q 36 -1059 270 -1276 l 270 -1276 l 328 -1322 q 360 -1348 396 -1360 l 396 -1360 l 472 -1384 q 503 -1395 579 -1407 q 655 -1420 712 -1420 l 712 -1420 l 752 -1420 q 906 -1420 1032 -1369 q 1157 -1318 1240 -1229 q 1323 -1140 1368 -1018 q 1412 -897 1412 -756 l 1412 -756 l 1412 -732 q 1402 -540 1310 -420 l 1310 -420 l 1420 -420 l 1460 -386 l 1460 -68 q 1451 -38 1426 -32 l 1426 -32 q 1414 -32 1334 -38 q 1254 -44 1202 -44 l 1202 -44 q 1111 -44 945 -26 q 778 -8 688 -8 l 688 -8 q 542 -8 407 -70 l 407 -70 l 255 -146 l 226 -192 l 226 -212 l 226 -210 l 196 -244 q 183 -267 168 -282 l 168 -282 l 168 -308 q 101 -420 69 -519 q 36 -618 36 -724 z m 564 -722 l 564 -722 q 564 -686 565 -669 q 565 -652 566 -613 q 567 -574 571 -551 q 575 -529 582 -495 q 588 -461 600 -440 q 611 -420 627 -399 q 642 -379 664 -369 q 686 -360 714 -360 l 714 -360 q 876 -360 876 -652 l 876 -652 l 876 -780 q 876 -1074 710 -1074 l 710 -1074 q 564 -1074 564 -722 z"},"r":{"ha":1402,"x_min":92,"x_max":1396,"o":"m 92 -40 l 92 -1376 l 278 -1376 q 364 -1376 553 -1380 q 742 -1384 836 -1384 l 836 -1384 q 917 -1384 988 -1375 q 1058 -1366 1127 -1342 q 1195 -1318 1244 -1281 q 1292 -1244 1322 -1183 q 1352 -1123 1352 -1044 l 1352 -1044 q 1352 -935 1301 -858 q 1250 -781 1144 -728 l 1144 -728 q 1186 -710 1217 -681 q 1248 -652 1265 -631 q 1281 -610 1297 -560 q 1312 -511 1315 -495 q 1318 -480 1328 -419 l 1328 -419 q 1331 -405 1332 -398 l 1332 -398 q 1336 -358 1366 -251 q 1396 -145 1396 -88 l 1396 -88 q 1396 -52 1374 -52 l 1374 -52 q 1314 -52 1193 -51 q 1071 -50 1012 -50 l 1012 -50 q 988 -52 940 -52 l 940 -52 l 872 -52 q 852 -58 833 -114 q 814 -170 806 -240 l 806 -240 l 784 -418 q 778 -440 775 -449 q 771 -459 762 -472 q 753 -486 738 -491 q 722 -496 698 -496 l 698 -496 l 652 -496 l 652 -96 q 652 -93 652 -86 q 652 -80 652 -77 q 652 -75 652 -70 q 652 -65 651 -62 q 650 -60 649 -56 q 648 -52 647 -50 q 645 -49 643 -46 q 640 -44 637 -43 q 633 -42 629 -41 q 624 -40 618 -40 l 618 -40 l 92 -40 z m 658 -848 l 658 -848 q 660 -846 664 -839 q 668 -833 672 -829 q 676 -825 680 -824 l 680 -824 q 710 -824 740 -830 q 770 -837 802 -852 q 833 -867 853 -898 q 872 -929 872 -972 l 872 -972 q 872 -1076 672 -1076 l 672 -1076 q 652 -1071 652 -1060 l 652 -1060 l 652 -1022 q 652 -993 655 -935 q 658 -877 658 -848 z"},"s":{"ha":1314,"x_min":28,"x_max":1286,"o":"m 864 -988 l 864 -988 q 837 -988 820 -996 q 803 -1004 793 -1016 q 783 -1028 771 -1040 q 758 -1052 731 -1060 q 704 -1068 662 -1068 l 662 -1068 q 649 -1068 631 -1065 q 612 -1063 590 -1052 q 568 -1041 568 -1024 l 568 -1024 q 568 -1005 587 -991 q 605 -978 629 -972 q 652 -967 682 -959 q 711 -952 723 -946 l 723 -946 l 870 -910 q 935 -892 987 -872 q 1039 -852 1098 -817 q 1156 -783 1195 -741 q 1234 -699 1260 -635 q 1286 -572 1286 -496 l 1286 -496 q 1286 -404 1262 -332 l 1262 -332 l 1262 -334 q 1241 -270 1203 -219 q 1165 -169 1113 -135 q 1061 -102 1008 -79 q 955 -57 886 -43 q 816 -30 762 -23 q 707 -17 636 -12 l 636 -12 q 321 -28 214 -112 l 214 -112 l 214 -124 q 123 -192 80 -272 q 36 -352 28 -452 l 28 -452 q 28 -476 50 -476 l 50 -476 q 56 -476 68 -475 q 80 -474 86 -474 l 86 -474 l 188 -474 q 202 -476 228 -476 l 228 -476 l 254 -476 q 262 -476 268 -474 l 268 -474 q 326 -476 466 -476 l 466 -476 l 512 -476 q 532 -476 543 -464 q 554 -452 561 -434 q 567 -417 576 -399 q 584 -382 606 -370 q 628 -358 664 -358 l 664 -358 q 703 -358 735 -378 q 766 -399 766 -438 l 766 -438 q 766 -456 749 -472 q 732 -488 698 -501 q 664 -514 638 -522 q 611 -530 566 -541 q 521 -552 508 -556 l 508 -556 l 448 -556 q 231 -620 136 -718 q 40 -817 40 -968 l 40 -968 q 40 -1068 78 -1148 q 115 -1228 177 -1279 q 238 -1330 321 -1364 q 404 -1399 490 -1413 q 576 -1428 668 -1428 l 668 -1428 q 831 -1428 971 -1373 q 1110 -1319 1182 -1232 l 1182 -1232 q 1208 -1206 1224 -1166 q 1240 -1126 1245 -1102 q 1249 -1079 1256 -1024 l 1256 -1024 l 1228 -984 l 1058 -984 q 1030 -984 965 -986 q 900 -988 864 -988 z"},"t":{"ha":1168,"x_min":-12,"x_max":1176,"o":"m -12 -1012 l -12 -1012 l -12 -1372 l 1152 -1372 q 1168 -1369 1172 -1359 q 1176 -1350 1176 -1332 l 1176 -1332 l 1176 -1012 q 1174 -988 1148 -988 l 1148 -988 l 864 -988 l 864 -68 q 864 -67 863 -63 q 862 -59 862 -58 q 862 -57 861 -54 q 860 -51 859 -50 q 858 -49 857 -46 q 856 -44 855 -43 q 853 -43 851 -41 q 848 -40 846 -39 q 843 -38 840 -37 q 836 -37 832 -36 l 832 -36 l 768 -36 q 640 -36 640 -44 l 640 -44 q 632 -44 616 -43 q 600 -42 592 -42 l 592 -42 l 512 -42 q 489 -42 447 -41 q 404 -40 380 -40 l 380 -40 l 324 -40 l 284 -68 l 284 -284 q 285 -342 293 -532 q 300 -722 300 -832 l 300 -832 l 300 -858 q 300 -866 301 -883 q 302 -900 302 -908 l 302 -908 q 302 -917 301 -944 q 300 -972 300 -980 l 300 -980 l 50 -980 q 28 -980 8 -987 q -12 -995 -12 -1012 z"},"u":{"ha":1450,"x_min":80,"x_max":1380,"o":"m 84 -1144 l 84 -1142 q 80 -1162 80 -1256 l 80 -1256 q 80 -1364 100 -1384 l 100 -1384 l 644 -1384 l 644 -544 q 644 -414 720 -414 l 720 -414 q 752 -414 773 -442 q 794 -471 794 -510 l 794 -510 l 794 -658 q 800 -1096 800 -1100 l 800 -1100 q 800 -1274 796 -1352 l 796 -1352 q 796 -1380 824 -1392 l 824 -1392 l 1380 -1392 l 1380 -1236 q 1367 -857 1364 -748 l 1364 -748 l 1364 -686 q 1364 -674 1363 -654 q 1362 -634 1362 -626 l 1362 -626 q 1362 -592 1364 -578 l 1364 -578 l 1364 -500 q 1364 -361 1336 -300 l 1336 -300 l 1336 -296 q 1304 -221 1244 -166 q 1184 -112 1107 -81 q 1030 -51 949 -37 q 868 -24 778 -24 l 778 -24 q 750 -24 736 -30 l 736 -30 l 712 -30 q 712 -20 682 -20 l 682 -20 l 682 -18 q 660 -17 554 -28 l 554 -28 l 508 -28 q 445 -35 387 -56 q 328 -77 273 -115 q 218 -154 177 -207 q 135 -260 109 -336 q 83 -412 80 -502 l 80 -502 q 81 -554 81 -646 q 80 -738 81 -813 q 82 -889 86 -960 l 86 -960 l 86 -988 q 86 -993 87 -1004 q 88 -1015 88 -1020 l 88 -1020 q 88 -1035 86 -1065 q 84 -1095 84 -1110 l 84 -1110 l 84 -1144 z"},"v":{"ha":1392,"x_min":-30,"x_max":1413,"o":"m 781 -770 l 765 -880 q 772 -918 804 -1025 q 835 -1133 841 -1196 l 841 -1196 l 841 -1266 q 841 -1268 844 -1283 q 846 -1298 847 -1301 q 847 -1304 850 -1316 q 852 -1329 855 -1333 q 857 -1337 862 -1346 q 866 -1355 871 -1358 q 876 -1362 884 -1367 q 891 -1372 901 -1374 q 910 -1376 921 -1376 l 921 -1376 l 1377 -1376 q 1379 -1375 1389 -1368 q 1399 -1361 1406 -1356 q 1412 -1351 1413 -1348 l 1413 -1348 l 1078 -143 q 1067 -101 1051 -72 q 1034 -44 1013 -44 l 1013 -44 l 329 -44 q 313 -108 292 -195 q 271 -282 250 -368 q 229 -455 213 -520 l 213 -520 l -30 -1346 q -30 -1369 3 -1376 l 3 -1376 l 3 -1380 q 63 -1380 185 -1382 q 306 -1384 361 -1384 l 361 -1384 l 525 -1384 q 532 -1384 535 -1381 q 537 -1379 541 -1371 q 544 -1364 550 -1358 l 550 -1358 l 693 -528 l 781 -770 z"},"w":{"ha":1906,"x_min":-25,"x_max":1927,"o":"m 487 -1340 l 560 -705 q 578 -778 594 -870 q 609 -962 619 -1034 q 629 -1106 643 -1210 q 656 -1315 665 -1376 l 665 -1376 l 1241 -1376 q 1244 -1352 1248 -1324 q 1251 -1297 1254 -1272 q 1257 -1247 1261 -1219 q 1264 -1191 1267 -1165 q 1270 -1140 1273 -1112 q 1276 -1084 1280 -1059 q 1283 -1034 1287 -1007 q 1290 -980 1293 -956 l 1293 -956 l 1336 -673 l 1417 -1361 q 1419 -1367 1425 -1371 q 1430 -1375 1440 -1377 q 1450 -1380 1459 -1381 q 1468 -1383 1484 -1383 q 1499 -1384 1508 -1384 q 1517 -1384 1534 -1384 q 1551 -1384 1557 -1384 l 1557 -1384 q 1589 -1384 1649 -1382 q 1709 -1380 1741 -1380 l 1741 -1380 q 1745 -1380 1762 -1381 q 1779 -1382 1789 -1382 l 1789 -1382 q 1827 -1382 1833 -1376 l 1833 -1376 q 1838 -1376 1851 -1377 q 1863 -1378 1869 -1378 l 1869 -1378 q 1878 -1378 1885 -1377 q 1891 -1376 1898 -1372 q 1905 -1369 1911 -1364 q 1916 -1359 1921 -1350 q 1925 -1341 1927 -1328 l 1927 -1328 l 1636 -52 l 1051 -52 l 940 -694 l 871 -164 q 870 -158 866 -131 q 861 -104 859 -94 q 856 -84 850 -67 q 844 -50 835 -43 q 826 -36 813 -36 l 813 -36 q 776 -36 703 -39 q 630 -42 593 -42 l 593 -42 q 529 -42 425 -39 q 321 -36 273 -36 l 273 -36 l 241 -36 l -25 -1279 l -19 -1350 q -19 -1352 -19 -1358 q -19 -1364 -19 -1365 q -19 -1367 -18 -1371 q -17 -1376 -15 -1378 q -13 -1380 -9 -1383 q -5 -1386 1 -1388 l 1 -1388 q 29 -1384 43 -1384 l 43 -1384 l 109 -1384 q 129 -1384 129 -1388 l 129 -1388 l 163 -1388 q 167 -1388 178 -1389 q 188 -1390 197 -1390 l 197 -1390 l 225 -1390 q 236 -1390 257 -1391 q 278 -1392 289 -1392 l 289 -1392 l 355 -1392 l 355 -1388 l 421 -1388 q 453 -1388 470 -1378 q 486 -1369 487 -1340 l 487 -1340 z"},"x":{"ha":1416,"x_min":-43,"x_max":1443,"o":"m -43 -80 l -43 -80 l 373 -724 l 4 -1308 l 17 -1342 q 16 -1343 8 -1348 q -1 -1353 -1 -1356 l -1 -1356 q -1 -1369 19 -1380 l 19 -1380 l 73 -1380 q 191 -1380 253 -1382 l 253 -1382 l 313 -1382 q 372 -1382 429 -1376 l 429 -1376 l 469 -1376 q 478 -1376 497 -1375 q 516 -1374 525 -1374 l 525 -1374 q 530 -1374 539 -1375 q 548 -1376 553 -1376 l 553 -1376 q 565 -1373 572 -1363 q 579 -1354 585 -1337 q 591 -1320 593 -1316 l 593 -1316 q 598 -1305 617 -1262 q 636 -1220 645 -1196 l 645 -1196 l 645 -1198 q 652 -1185 664 -1160 q 675 -1136 679 -1128 l 679 -1128 l 713 -1058 q 716 -1053 717 -1049 q 718 -1045 721 -1040 l 721 -1040 q 731 -1064 811 -1236 l 811 -1236 l 845 -1304 q 879 -1372 893 -1372 l 893 -1372 l 1377 -1372 q 1390 -1367 1403 -1365 q 1416 -1364 1420 -1362 q 1424 -1361 1427 -1353 q 1429 -1345 1429 -1326 l 1429 -1326 l 1385 -1260 q 1315 -1159 1195 -968 q 1074 -778 1035 -718 l 1035 -718 l 1443 -80 q 1443 -58 1428 -50 q 1412 -42 1383 -42 l 1383 -42 l 853 -42 q 831 -87 776 -207 q 720 -327 689 -388 l 689 -388 q 681 -372 651 -304 q 620 -236 599 -193 q 578 -151 548 -103 q 517 -56 493 -42 l 493 -42 q 457 -42 389 -43 q 320 -44 285 -44 l 285 -44 l 249 -44 q 226 -44 172 -46 q 117 -48 89 -48 l 89 -48 l -7 -48 q -43 -60 -43 -80 z"},"y":{"ha":1366,"x_min":-32,"x_max":1402,"o":"m 16 -1380 l 545 -1380 l 702 -886 q 778 -1089 844 -1292 l 844 -1292 q 846 -1300 856 -1322 q 866 -1344 868 -1358 l 868 -1358 q 876 -1382 976 -1382 l 976 -1382 q 983 -1382 996 -1381 q 1008 -1380 1016 -1380 l 1016 -1380 q 1179 -1382 1368 -1384 l 1368 -1384 q 1392 -1381 1402 -1335 l 1402 -1335 l 948 -513 l 964 -446 q 964 -388 966 -269 q 968 -150 968 -104 l 968 -104 l 968 -74 q 964 -60 953 -51 q 941 -42 921 -39 q 900 -37 885 -36 q 869 -36 841 -37 q 812 -38 802 -38 l 802 -38 l 420 -38 l 388 -80 l 388 -498 l 157 -991 l 50 -1141 q -32 -1305 -32 -1352 l -32 -1352 q -32 -1380 16 -1380 l 16 -1380 z"},"z":{"ha":1242,"x_min":8,"x_max":1212,"o":"m 8 -84 l 8 -84 l 8 -146 q 8 -154 9 -175 q 10 -196 10 -208 l 10 -208 l 10 -260 q 10 -390 20 -400 l 20 -400 q 156 -557 428 -896 l 428 -896 l 513 -995 q 486 -997 367 -995 q 248 -994 216 -994 l 216 -994 l 190 -994 q 179 -994 157 -993 q 135 -992 124 -992 l 124 -992 l 60 -992 q 36 -1004 36 -1026 l 36 -1026 l 36 -1372 l 1144 -1372 q 1162 -1372 1168 -1371 q 1174 -1371 1182 -1365 q 1190 -1360 1192 -1348 q 1194 -1336 1194 -1314 l 1194 -1314 q 1194 -1302 1192 -1285 q 1190 -1268 1190 -1264 l 1190 -1264 l 1194 -1252 q 1194 -1215 1194 -1180 q 1193 -1145 1192 -1121 q 1191 -1097 1190 -1079 q 1189 -1061 1189 -1051 q 1188 -1041 1188 -1040 l 1188 -1040 q 1180 -1019 1180 -1016 l 1180 -1016 l 1180 -1000 q 1106 -915 967 -759 q 827 -603 772 -540 l 772 -540 l 728 -484 l 680 -432 l 1180 -432 q 1212 -432 1212 -352 l 1212 -352 l 1212 -92 q 1212 -62 1199 -51 q 1186 -40 1156 -40 l 1156 -40 l 38 -40 q 32 -46 21 -61 q 9 -77 8 -84 z"},".":{"ha":774,"x_min":112,"x_max":658,"o":"m 144 16 l 112 -14 l 112 -44 q 112 -59 113 -91 q 114 -124 114 -144 l 114 -144 l 114 -196 q 114 -440 146 -440 l 146 -440 l 556 -440 q 652 -440 652 -412 l 652 -412 q 656 -220 656 -118 l 656 -118 l 656 -84 q 656 -77 657 -62 q 658 -48 658 -40 l 658 -40 q 658 16 636 16 l 636 16 l 144 16 z"},",":{"ha":734,"x_min":-7,"x_max":670,"o":"m 25 240 l -7 206 l 73 -164 q 97 -276 124 -360 q 151 -444 165 -444 l 165 -444 l 521 -444 q 542 -444 559 -443 q 575 -443 593 -442 q 611 -441 625 -439 q 638 -437 649 -434 q 659 -432 665 -427 q 670 -423 670 -417 l 670 -417 l 477 216 q 466 240 255 240 l 255 240 l 25 240 z"},"!":{"ha":792,"x_min":90,"x_max":706,"o":"m 147 -666 l 90 -1462 q 90 -1496 260 -1496 l 260 -1496 l 380 -1496 q 528 -1508 616 -1508 l 616 -1508 q 706 -1508 706 -1468 l 706 -1468 l 634 -557 q 633 -547 623 -539 q 613 -532 596 -528 q 578 -525 559 -523 q 540 -522 516 -522 l 516 -522 q 503 -522 477 -523 q 451 -524 438 -524 l 438 -524 q 411 -524 359 -522 q 307 -520 280 -520 l 280 -520 l 194 -520 q 183 -524 175 -532 q 166 -540 161 -552 q 156 -565 153 -576 q 150 -588 149 -606 q 148 -624 148 -635 q 147 -647 147 -666 l 147 -666 z m 121 0 l 121 0 l 112 -152 q 112 -231 122 -293 q 132 -356 148 -356 l 148 -356 l 344 -356 q 448 -356 510 -354 q 572 -352 605 -347 q 637 -343 647 -337 q 656 -331 656 -320 l 656 -320 l 656 -4 q 654 6 629 13 q 603 20 561 24 q 518 28 471 31 q 424 33 369 33 q 313 33 273 33 q 233 33 193 33 q 152 32 146 32 l 146 32 l 146 16 q 143 13 133 8 q 122 3 121 0 z"},"?":{"ha":1120,"x_min":42,"x_max":1092,"o":"m 176 -536 l 176 -536 q 176 -596 196 -648 q 215 -700 245 -735 q 275 -770 311 -806 q 347 -843 379 -872 q 411 -902 437 -943 q 462 -985 470 -1030 l 470 -1030 q 463 -1069 435 -1082 q 407 -1096 362 -1096 l 362 -1096 q 227 -1091 88 -1036 l 88 -1036 l 42 -1074 q 42 -1137 43 -1257 q 44 -1378 44 -1442 l 44 -1442 q 44 -1482 127 -1508 q 210 -1534 296 -1541 q 382 -1548 466 -1548 l 466 -1548 q 726 -1545 858 -1476 l 858 -1476 l 900 -1454 q 985 -1400 1030 -1332 l 1030 -1332 l 1030 -1304 q 1050 -1264 1070 -1195 q 1090 -1126 1092 -1120 l 1092 -1120 q 1083 -974 1032 -908 l 1032 -908 q 994 -861 946 -819 q 898 -778 860 -753 q 821 -728 787 -703 q 752 -678 732 -650 q 712 -622 710 -588 l 710 -588 q 713 -573 715 -540 q 717 -508 720 -492 l 720 -492 q 720 -484 716 -476 q 712 -468 708 -468 l 708 -468 l 558 -468 q 440 -468 204 -456 l 204 -456 q 176 -456 176 -536 z m 170 -34 l 170 -34 l 170 -60 q 170 -84 172 -96 l 172 -96 l 172 -196 q 170 -208 170 -238 l 170 -238 q 170 -346 200 -368 l 200 -368 q 235 -367 345 -363 q 455 -360 518 -360 l 518 -360 q 567 -358 593 -357 q 619 -356 645 -352 q 671 -349 681 -345 q 691 -341 700 -332 q 709 -324 711 -313 q 712 -303 712 -286 l 712 -286 l 712 -186 q 712 -165 713 -125 q 714 -85 714 -64 l 714 -64 l 714 -4 q 711 16 692 16 l 692 16 q 688 16 688 12 l 688 12 q 632 13 352 28 l 352 28 l 202 28 l 172 -8 q 172 -28 170 -34 z"},"-":{"ha":858,"x_min":36,"x_max":808,"o":"m 72 -360 l 36 -360 l 36 -642 q 36 -744 68 -744 l 68 -744 q 446 -744 640 -746 l 640 -746 q 688 -746 712 -744 l 712 -744 l 780 -744 q 808 -739 808 -610 l 808 -610 l 808 -396 q 804 -360 780 -360 l 780 -360 q 659 -360 424 -350 q 188 -340 72 -340 l 72 -340 l 72 -360 z"}}}
